<svg width="151" height="101" viewBox="0 0 151 101" fill="none" xmlns="http://www.w3.org/2000/svg">
<path d="M14.65 52.156L1.448 85H3.61L7.796 74.466H23.528L27.668 85H29.83L16.858 52.156H14.65ZM8.44 72.718L15.754 54.134H15.846L22.884 72.718H8.44ZM50.9336 68.67C50.4276 63.288 46.2876 60.804 41.1816 60.804C34.1896 60.804 30.3256 66.37 30.3256 72.948C30.3256 79.526 33.4996 85.552 41.1816 85.552C46.2876 85.552 50.3816 82.332 51.1636 76.674H49.4156C48.8176 80.998 45.5976 84.034 41.1816 84.034C35.0636 84.034 32.0736 79.342 32.0736 72.948C32.0736 67.566 35.2476 62.322 41.1816 62.322C45.4596 62.322 48.8636 64.484 49.1856 68.67H50.9336ZM63.4711 61.356H58.3191V53.996H56.5711V61.356H52.2011V62.874H56.5711V79.388C56.3871 84.724 59.8371 85.23 63.4251 85V83.482C60.1131 83.574 58.3191 83.206 58.3191 79.388V62.874H63.4711V61.356ZM81.9074 75.984C81.9074 77.226 81.0334 84.034 73.0754 84.034C68.9354 84.034 66.8654 81.734 66.8654 78.882C66.8654 75.34 69.2114 73.868 73.3514 73.408C76.7554 72.948 80.5274 73.132 81.9074 71.568V75.984ZM83.6554 66.968C83.6554 62.092 79.5154 60.804 75.3754 60.804C69.8094 60.804 66.5894 63.426 66.3594 68.624H68.1074C68.3374 64.53 71.1434 62.322 75.3754 62.322C80.7574 62.322 81.9534 65.91 81.9534 66.968C81.9534 70.832 81.6314 71.338 73.8114 71.89C69.9014 72.212 65.1174 73.362 65.1174 78.882C65.1174 83.85 68.5674 85.552 73.0294 85.552C77.5374 85.552 80.7114 83.114 81.8154 80.308H81.9074V81.55C81.9074 83.482 82.3214 85 85.0814 85C85.5414 85 86.0014 84.908 86.5074 84.816V83.344C85.9554 83.436 85.5414 83.482 85.2194 83.482C83.6554 83.482 83.6554 82.01 83.6554 80.63V66.968ZM99.6174 84.034C92.9474 84.034 90.9694 78.836 90.9694 73.224C90.9694 67.612 93.3154 62.322 99.6174 62.322C105.965 62.322 108.495 67.842 108.495 73.224C108.495 79.066 105.781 84.034 99.6174 84.034ZM90.9234 61.356H89.1754V93.464H90.9234V80.078H91.0154C92.3954 83.896 95.7074 85.552 99.6174 85.552C106.839 85.552 110.243 80.4 110.243 73.224C110.243 66.554 106.885 60.804 99.6174 60.804C94.4194 60.804 91.7514 64.438 91.0154 66.784H90.9234V61.356ZM129.548 75.984C129.548 77.226 128.674 84.034 120.716 84.034C116.576 84.034 114.506 81.734 114.506 78.882C114.506 75.34 116.852 73.868 120.992 73.408C124.396 72.948 128.168 73.132 129.548 71.568V75.984ZM131.296 66.968C131.296 62.092 127.156 60.804 123.016 60.804C117.45 60.804 114.23 63.426 114 68.624H115.748C115.978 64.53 118.784 62.322 123.016 62.322C128.398 62.322 129.594 65.91 129.594 66.968C129.594 70.832 129.272 71.338 121.452 71.89C117.542 72.212 112.758 73.362 112.758 78.882C112.758 83.85 116.208 85.552 120.67 85.552C125.178 85.552 128.352 83.114 129.456 80.308H129.548V81.55C129.548 83.482 129.962 85 132.722 85C133.182 85 133.642 84.908 134.148 84.816V83.344C133.596 83.436 133.182 83.482 132.86 83.482C131.296 83.482 131.296 82.01 131.296 80.63V66.968ZM138.15 61.356H136.402V85H138.15V72.074C138.334 68.532 139.07 67.06 140.818 65.266C142.934 63.196 145.51 62.736 147.35 62.966V61.218C143.072 61.034 139.208 63.518 138.288 66.6H138.15V61.356Z" fill="white"/>
<rect x="89" y="91" width="2" height="3" fill="#093E52"/>
<path d="M2.6435 96.34L4.002 92.863L5.313 96.34H2.6435ZM3.6695 92.217L0.943 99H1.627L2.444 96.891H5.5315L6.358 99H7.0515L4.3915 92.217H3.6695ZM10.5369 95.5325H11.1354C11.1227 95.2665 11.0689 95.0353 10.9739 94.839C10.8789 94.6427 10.7491 94.478 10.5844 94.345C10.4261 94.212 10.2392 94.1138 10.0239 94.0505C9.81489 93.9872 9.58689 93.9555 9.33989 93.9555C9.12455 93.9555 8.90605 93.9808 8.68439 94.0315C8.46905 94.0822 8.27272 94.1613 8.09539 94.269C7.91805 94.3767 7.77239 94.5192 7.65839 94.6965C7.55072 94.8738 7.49689 95.086 7.49689 95.333C7.49689 95.542 7.53172 95.7193 7.60139 95.865C7.67105 96.0043 7.76605 96.1247 7.88639 96.226C8.01305 96.321 8.15872 96.4033 8.32339 96.473C8.48805 96.5363 8.66855 96.5933 8.86489 96.644L9.63439 96.815C9.76739 96.8467 9.89722 96.8847 10.0239 96.929C10.1569 96.9733 10.2741 97.0303 10.3754 97.1C10.4767 97.1633 10.5559 97.2457 10.6129 97.347C10.6762 97.442 10.7079 97.5623 10.7079 97.708C10.7079 97.879 10.6636 98.0247 10.5749 98.145C10.4926 98.259 10.3849 98.354 10.2519 98.43C10.1189 98.506 9.97322 98.5598 9.81489 98.5915C9.66289 98.6232 9.51405 98.639 9.36839 98.639C8.96939 98.639 8.63372 98.5377 8.36139 98.335C8.09539 98.126 7.94972 97.8188 7.92439 97.4135H7.32589C7.37655 98.0152 7.57922 98.4522 7.93389 98.7245C8.29489 98.9968 8.76355 99.133 9.33989 99.133C9.56789 99.133 9.79905 99.1077 10.0334 99.057C10.2677 99.0063 10.4767 98.924 10.6604 98.81C10.8504 98.6897 11.0056 98.5377 11.1259 98.354C11.2462 98.164 11.3064 97.936 11.3064 97.67C11.3064 97.4547 11.2652 97.2678 11.1829 97.1095C11.1006 96.9512 10.9929 96.8182 10.8599 96.7105C10.7332 96.6028 10.5844 96.5173 10.4134 96.454C10.2487 96.3843 10.0809 96.3368 9.90989 96.3115L9.11189 96.131C9.01055 96.1057 8.89972 96.074 8.77939 96.036C8.65905 95.9917 8.54822 95.9378 8.44689 95.8745C8.34555 95.8112 8.26005 95.7352 8.19039 95.6465C8.12705 95.5515 8.09539 95.4375 8.09539 95.3045C8.09539 95.1462 8.13022 95.0132 8.19989 94.9055C8.26955 94.7978 8.36139 94.7123 8.47539 94.649C8.58939 94.5793 8.71289 94.5318 8.84589 94.5065C8.98522 94.4748 9.12139 94.459 9.25439 94.459C9.42539 94.459 9.58689 94.4812 9.73889 94.5255C9.89089 94.5635 10.0239 94.6268 10.1379 94.7155C10.2582 94.8042 10.3532 94.9182 10.4229 95.0575C10.4926 95.1905 10.5306 95.3488 10.5369 95.5325ZM15.1581 95.5325H15.7566C15.744 95.2665 15.6901 95.0353 15.5951 94.839C15.5001 94.6427 15.3703 94.478 15.2056 94.345C15.0473 94.212 14.8605 94.1138 14.6451 94.0505C14.4361 93.9872 14.2081 93.9555 13.9611 93.9555C13.7458 93.9555 13.5273 93.9808 13.3056 94.0315C13.0903 94.0822 12.894 94.1613 12.7166 94.269C12.5393 94.3767 12.3936 94.5192 12.2796 94.6965C12.172 94.8738 12.1181 95.086 12.1181 95.333C12.1181 95.542 12.153 95.7193 12.2226 95.865C12.2923 96.0043 12.3873 96.1247 12.5076 96.226C12.6343 96.321 12.78 96.4033 12.9446 96.473C13.1093 96.5363 13.2898 96.5933 13.4861 96.644L14.2556 96.815C14.3886 96.8467 14.5185 96.8847 14.6451 96.929C14.7781 96.9733 14.8953 97.0303 14.9966 97.1C15.098 97.1633 15.1771 97.2457 15.2341 97.347C15.2975 97.442 15.3291 97.5623 15.3291 97.708C15.3291 97.879 15.2848 98.0247 15.1961 98.145C15.1138 98.259 15.0061 98.354 14.8731 98.43C14.7401 98.506 14.5945 98.5598 14.4361 98.5915C14.2841 98.6232 14.1353 98.639 13.9896 98.639C13.5906 98.639 13.255 98.5377 12.9826 98.335C12.7166 98.126 12.571 97.8188 12.5456 97.4135H11.9471C11.9978 98.0152 12.2005 98.4522 12.5551 98.7245C12.9161 98.9968 13.3848 99.133 13.9611 99.133C14.1891 99.133 14.4203 99.1077 14.6546 99.057C14.889 99.0063 15.098 98.924 15.2816 98.81C15.4716 98.6897 15.6268 98.5377 15.7471 98.354C15.8675 98.164 15.9276 97.936 15.9276 97.67C15.9276 97.4547 15.8865 97.2678 15.8041 97.1095C15.7218 96.9512 15.6141 96.8182 15.4811 96.7105C15.3545 96.6028 15.2056 96.5173 15.0346 96.454C14.87 96.3843 14.7021 96.3368 14.5311 96.3115L13.7331 96.131C13.6318 96.1057 13.521 96.074 13.4006 96.036C13.2803 95.9917 13.1695 95.9378 13.0681 95.8745C12.9668 95.8112 12.8813 95.7352 12.8116 95.6465C12.7483 95.5515 12.7166 95.4375 12.7166 95.3045C12.7166 95.1462 12.7515 95.0132 12.8211 94.9055C12.8908 94.7978 12.9826 94.7123 13.0966 94.649C13.2106 94.5793 13.3341 94.5318 13.4671 94.5065C13.6065 94.4748 13.7426 94.459 13.8756 94.459C14.0466 94.459 14.2081 94.4812 14.3601 94.5255C14.5121 94.5635 14.6451 94.6268 14.7591 94.7155C14.8795 94.8042 14.9745 94.9182 15.0441 95.0575C15.1138 95.1905 15.1518 95.3488 15.1581 95.5325ZM20.3683 96.207H17.1953C17.2207 95.9853 17.2713 95.77 17.3473 95.561C17.4297 95.3457 17.5373 95.1588 17.6703 95.0005C17.8033 94.8358 17.9648 94.706 18.1548 94.611C18.3448 94.5097 18.5633 94.459 18.8103 94.459C19.051 94.459 19.2663 94.5097 19.4563 94.611C19.6463 94.706 19.8078 94.8358 19.9408 95.0005C20.0738 95.1588 20.1752 95.3425 20.2448 95.5515C20.3208 95.7605 20.362 95.979 20.3683 96.207ZM17.1953 96.7105H20.9668C20.9795 96.3685 20.9478 96.0328 20.8718 95.7035C20.7958 95.3678 20.6692 95.0733 20.4918 94.82C20.3208 94.5603 20.096 94.3513 19.8173 94.193C19.5387 94.0347 19.203 93.9555 18.8103 93.9555C18.424 93.9555 18.0883 94.0315 17.8033 94.1835C17.5247 94.3292 17.2967 94.5255 17.1193 94.7725C16.942 95.0132 16.809 95.2887 16.7203 95.599C16.638 95.9093 16.5968 96.226 16.5968 96.549C16.5968 96.8973 16.638 97.2298 16.7203 97.5465C16.809 97.8568 16.942 98.1323 17.1193 98.373C17.2967 98.6073 17.5247 98.7942 17.8033 98.9335C18.0883 99.0665 18.424 99.133 18.8103 99.133C19.431 99.133 19.9092 98.981 20.2448 98.677C20.5868 98.373 20.8212 97.9423 20.9478 97.385H20.3493C20.2543 97.765 20.0833 98.069 19.8363 98.297C19.5893 98.525 19.2473 98.639 18.8103 98.639C18.5253 98.639 18.2815 98.5788 18.0788 98.4585C17.8762 98.3382 17.7083 98.1862 17.5753 98.0025C17.4423 97.8188 17.3442 97.613 17.2808 97.385C17.2238 97.1507 17.1953 96.9258 17.1953 96.7105ZM24.7531 95.5325H25.3516C25.339 95.2665 25.2851 95.0353 25.1901 94.839C25.0951 94.6427 24.9653 94.478 24.8006 94.345C24.6423 94.212 24.4555 94.1138 24.2401 94.0505C24.0311 93.9872 23.8031 93.9555 23.5561 93.9555C23.3408 93.9555 23.1223 93.9808 22.9006 94.0315C22.6853 94.0822 22.489 94.1613 22.3116 94.269C22.1343 94.3767 21.9886 94.5192 21.8746 94.6965C21.767 94.8738 21.7131 95.086 21.7131 95.333C21.7131 95.542 21.748 95.7193 21.8176 95.865C21.8873 96.0043 21.9823 96.1247 22.1026 96.226C22.2293 96.321 22.375 96.4033 22.5396 96.473C22.7043 96.5363 22.8848 96.5933 23.0811 96.644L23.8506 96.815C23.9836 96.8467 24.1135 96.8847 24.2401 96.929C24.3731 96.9733 24.4903 97.0303 24.5916 97.1C24.693 97.1633 24.7721 97.2457 24.8291 97.347C24.8925 97.442 24.9241 97.5623 24.9241 97.708C24.9241 97.879 24.8798 98.0247 24.7911 98.145C24.7088 98.259 24.6011 98.354 24.4681 98.43C24.3351 98.506 24.1895 98.5598 24.0311 98.5915C23.8791 98.6232 23.7303 98.639 23.5846 98.639C23.1856 98.639 22.85 98.5377 22.5776 98.335C22.3116 98.126 22.166 97.8188 22.1406 97.4135H21.5421C21.5928 98.0152 21.7955 98.4522 22.1501 98.7245C22.5111 98.9968 22.9798 99.133 23.5561 99.133C23.7841 99.133 24.0153 99.1077 24.2496 99.057C24.484 99.0063 24.693 98.924 24.8766 98.81C25.0666 98.6897 25.2218 98.5377 25.3421 98.354C25.4625 98.164 25.5226 97.936 25.5226 97.67C25.5226 97.4547 25.4815 97.2678 25.3991 97.1095C25.3168 96.9512 25.2091 96.8182 25.0761 96.7105C24.9495 96.6028 24.8006 96.5173 24.6296 96.454C24.465 96.3843 24.2971 96.3368 24.1261 96.3115L23.3281 96.131C23.2268 96.1057 23.116 96.074 22.9956 96.036C22.8753 95.9917 22.7645 95.9378 22.6631 95.8745C22.5618 95.8112 22.4763 95.7352 22.4066 95.6465C22.3433 95.5515 22.3116 95.4375 22.3116 95.3045C22.3116 95.1462 22.3465 95.0132 22.4161 94.9055C22.4858 94.7978 22.5776 94.7123 22.6916 94.649C22.8056 94.5793 22.9291 94.5318 23.0621 94.5065C23.2015 94.4748 23.3376 94.459 23.4706 94.459C23.6416 94.459 23.8031 94.4812 23.9551 94.5255C24.1071 94.5635 24.2401 94.6268 24.3541 94.7155C24.4745 94.8042 24.5695 94.9182 24.6391 95.0575C24.7088 95.1905 24.7468 95.3488 24.7531 95.5325ZM29.3743 95.5325H29.9728C29.9602 95.2665 29.9063 95.0353 29.8113 94.839C29.7163 94.6427 29.5865 94.478 29.4218 94.345C29.2635 94.212 29.0767 94.1138 28.8613 94.0505C28.6523 93.9872 28.4243 93.9555 28.1773 93.9555C27.962 93.9555 27.7435 93.9808 27.5218 94.0315C27.3065 94.0822 27.1102 94.1613 26.9328 94.269C26.7555 94.3767 26.6098 94.5192 26.4958 94.6965C26.3882 94.8738 26.3343 95.086 26.3343 95.333C26.3343 95.542 26.3692 95.7193 26.4388 95.865C26.5085 96.0043 26.6035 96.1247 26.7238 96.226C26.8505 96.321 26.9962 96.4033 27.1608 96.473C27.3255 96.5363 27.506 96.5933 27.7023 96.644L28.4718 96.815C28.6048 96.8467 28.7347 96.8847 28.8613 96.929C28.9943 96.9733 29.1115 97.0303 29.2128 97.1C29.3142 97.1633 29.3933 97.2457 29.4503 97.347C29.5137 97.442 29.5453 97.5623 29.5453 97.708C29.5453 97.879 29.501 98.0247 29.4123 98.145C29.33 98.259 29.2223 98.354 29.0893 98.43C28.9563 98.506 28.8107 98.5598 28.6523 98.5915C28.5003 98.6232 28.3515 98.639 28.2058 98.639C27.8068 98.639 27.4712 98.5377 27.1988 98.335C26.9328 98.126 26.7872 97.8188 26.7618 97.4135H26.1633C26.214 98.0152 26.4167 98.4522 26.7713 98.7245C27.1323 98.9968 27.601 99.133 28.1773 99.133C28.4053 99.133 28.6365 99.1077 28.8708 99.057C29.1052 99.0063 29.3142 98.924 29.4978 98.81C29.6878 98.6897 29.843 98.5377 29.9633 98.354C30.0837 98.164 30.1438 97.936 30.1438 97.67C30.1438 97.4547 30.1027 97.2678 30.0203 97.1095C29.938 96.9512 29.8303 96.8182 29.6973 96.7105C29.5707 96.6028 29.4218 96.5173 29.2508 96.454C29.0862 96.3843 28.9183 96.3368 28.7473 96.3115L27.9493 96.131C27.848 96.1057 27.7372 96.074 27.6168 96.036C27.4965 95.9917 27.3857 95.9378 27.2843 95.8745C27.183 95.8112 27.0975 95.7352 27.0278 95.6465C26.9645 95.5515 26.9328 95.4375 26.9328 95.3045C26.9328 95.1462 26.9677 95.0132 27.0373 94.9055C27.107 94.7978 27.1988 94.7123 27.3128 94.649C27.4268 94.5793 27.5503 94.5318 27.6833 94.5065C27.8227 94.4748 27.9588 94.459 28.0918 94.459C28.2628 94.459 28.4243 94.4812 28.5763 94.5255C28.7283 94.5635 28.8613 94.6268 28.9753 94.7155C29.0957 94.8042 29.1907 94.9182 29.2603 95.0575C29.33 95.1905 29.368 95.3488 29.3743 95.5325ZM33.1311 94.459C33.4161 94.459 33.6662 94.5192 33.8816 94.6395C34.0969 94.7598 34.2742 94.9182 34.4136 95.1145C34.5592 95.3108 34.6669 95.5357 34.7366 95.789C34.8126 96.036 34.8506 96.2893 34.8506 96.549C34.8506 96.8087 34.8126 97.0652 34.7366 97.3185C34.6669 97.5655 34.5592 97.7872 34.4136 97.9835C34.2742 98.1798 34.0969 98.3382 33.8816 98.4585C33.6662 98.5788 33.4161 98.639 33.1311 98.639C32.8461 98.639 32.5959 98.5788 32.3806 98.4585C32.1652 98.3382 31.9847 98.1798 31.8391 97.9835C31.6997 97.7872 31.5921 97.5655 31.5161 97.3185C31.4464 97.0652 31.4116 96.8087 31.4116 96.549C31.4116 96.2893 31.4464 96.036 31.5161 95.789C31.5921 95.5357 31.6997 95.3108 31.8391 95.1145C31.9847 94.9182 32.1652 94.7598 32.3806 94.6395C32.5959 94.5192 32.8461 94.459 33.1311 94.459ZM33.1311 93.9555C32.7574 93.9555 32.4249 94.0252 32.1336 94.1645C31.8486 94.3038 31.6079 94.4907 31.4116 94.725C31.2152 94.9593 31.0664 95.2348 30.9651 95.5515C30.8637 95.8618 30.8131 96.1943 30.8131 96.549C30.8131 96.9037 30.8637 97.2393 30.9651 97.556C31.0664 97.8663 31.2152 98.1387 31.4116 98.373C31.6079 98.6073 31.8486 98.7942 32.1336 98.9335C32.4249 99.0665 32.7574 99.133 33.1311 99.133C33.5047 99.133 33.8341 99.0665 34.1191 98.9335C34.4104 98.7942 34.6542 98.6073 34.8506 98.373C35.0469 98.1387 35.1957 97.8663 35.2971 97.556C35.3984 97.2393 35.4491 96.9037 35.4491 96.549C35.4491 96.1943 35.3984 95.8618 35.2971 95.5515C35.1957 95.2348 35.0469 94.9593 34.8506 94.725C34.6542 94.4907 34.4104 94.3038 34.1191 94.1645C33.8341 94.0252 33.5047 93.9555 33.1311 93.9555ZM36.3864 94.098V99H36.9849V96.3875C36.9849 96.1278 37.0292 95.8903 37.1179 95.675C37.2066 95.4533 37.3301 95.2633 37.4884 95.105C37.6531 94.9467 37.8462 94.8263 38.0679 94.744C38.2896 94.6553 38.5366 94.6173 38.8089 94.63V94.0315C38.3656 94.0125 37.9824 94.1107 37.6594 94.326C37.3427 94.5413 37.1084 94.8485 36.9564 95.2475H36.9374V94.098H36.3864ZM39.44 92.217V93.1765H40.0385V92.217H39.44ZM39.44 94.098V99H40.0385V94.098H39.44ZM41.1744 95.599H41.7729C41.7856 95.2 41.9122 94.9118 42.1529 94.7345C42.3936 94.5508 42.7039 94.459 43.0839 94.459C43.2612 94.459 43.4259 94.4748 43.5779 94.5065C43.7362 94.5318 43.8724 94.5825 43.9864 94.6585C44.1067 94.7345 44.1986 94.839 44.2619 94.972C44.3316 95.0987 44.3664 95.2633 44.3664 95.466C44.3664 95.599 44.3474 95.7067 44.3094 95.789C44.2777 95.8713 44.2302 95.9378 44.1669 95.9885C44.1036 96.0328 44.0244 96.0645 43.9294 96.0835C43.8344 96.1025 43.7236 96.1183 43.5969 96.131C43.2739 96.169 42.9541 96.2102 42.6374 96.2545C42.3271 96.2925 42.0452 96.3622 41.7919 96.4635C41.5449 96.5648 41.3454 96.7137 41.1934 96.91C41.0414 97.1 40.9654 97.366 40.9654 97.708C40.9654 97.955 41.0066 98.1703 41.0889 98.354C41.1776 98.5313 41.2947 98.6802 41.4404 98.8005C41.5924 98.9145 41.7666 98.9968 41.9629 99.0475C42.1656 99.1045 42.3809 99.133 42.6089 99.133C42.8496 99.133 43.0554 99.1108 43.2264 99.0665C43.4037 99.0222 43.5589 98.9588 43.6919 98.8765C43.8312 98.7942 43.9547 98.6928 44.0624 98.5725C44.1764 98.4458 44.2872 98.3033 44.3949 98.145H44.4139C44.4139 98.2717 44.4202 98.3888 44.4329 98.4965C44.4519 98.5978 44.4867 98.6865 44.5374 98.7625C44.5881 98.8385 44.6577 98.8987 44.7464 98.943C44.8414 98.981 44.9649 99 45.1169 99C45.1992 99 45.2657 98.9968 45.3164 98.9905C45.3734 98.9842 45.4367 98.9747 45.5064 98.962V98.4585C45.4494 98.4838 45.3861 98.4965 45.3164 98.4965C45.0821 98.4965 44.9649 98.3762 44.9649 98.1355V95.5325C44.9649 95.2032 44.9111 94.9372 44.8034 94.7345C44.6957 94.5255 44.5564 94.364 44.3854 94.25C44.2144 94.136 44.0212 94.06 43.8059 94.022C43.5906 93.9777 43.3752 93.9555 43.1599 93.9555C42.8749 93.9555 42.6152 93.9872 42.3809 94.0505C42.1466 94.1138 41.9407 94.212 41.7634 94.345C41.5924 94.478 41.4562 94.649 41.3549 94.858C41.2536 95.067 41.1934 95.314 41.1744 95.599ZM44.3664 96.321V97.1C44.3664 97.3407 44.3189 97.556 44.2239 97.746C44.1352 97.936 44.0117 98.0975 43.8534 98.2305C43.7014 98.3635 43.5209 98.4648 43.3119 98.5345C43.1029 98.6042 42.8844 98.639 42.6564 98.639C42.5171 98.639 42.3809 98.6168 42.2479 98.5725C42.1149 98.5282 41.9977 98.4648 41.8964 98.3825C41.7951 98.2938 41.7127 98.1925 41.6494 98.0785C41.5924 97.9582 41.5639 97.822 41.5639 97.67C41.5639 97.4293 41.6336 97.2457 41.7729 97.119C41.9186 96.986 42.1022 96.8847 42.3239 96.815C42.5456 96.7453 42.7894 96.6947 43.0554 96.663C43.3277 96.625 43.5906 96.5838 43.8439 96.5395C43.9262 96.5268 44.0212 96.5047 44.1289 96.473C44.2366 96.4413 44.3094 96.3907 44.3474 96.321H44.3664ZM52.4212 96.207H49.2482C49.2735 95.9853 49.3242 95.77 49.4002 95.561C49.4825 95.3457 49.5902 95.1588 49.7232 95.0005C49.8562 94.8358 50.0177 94.706 50.2077 94.611C50.3977 94.5097 50.6162 94.459 50.8632 94.459C51.1039 94.459 51.3192 94.5097 51.5092 94.611C51.6992 94.706 51.8607 94.8358 51.9937 95.0005C52.1267 95.1588 52.228 95.3425 52.2977 95.5515C52.3737 95.7605 52.4149 95.979 52.4212 96.207ZM49.2482 96.7105H53.0197C53.0324 96.3685 53.0007 96.0328 52.9247 95.7035C52.8487 95.3678 52.722 95.0733 52.5447 94.82C52.3737 94.5603 52.1489 94.3513 51.8702 94.193C51.5915 94.0347 51.2559 93.9555 50.8632 93.9555C50.4769 93.9555 50.1412 94.0315 49.8562 94.1835C49.5775 94.3292 49.3495 94.5255 49.1722 94.7725C48.9949 95.0132 48.8619 95.2887 48.7732 95.599C48.6909 95.9093 48.6497 96.226 48.6497 96.549C48.6497 96.8973 48.6909 97.2298 48.7732 97.5465C48.8619 97.8568 48.9949 98.1323 49.1722 98.373C49.3495 98.6073 49.5775 98.7942 49.8562 98.9335C50.1412 99.0665 50.4769 99.133 50.8632 99.133C51.4839 99.133 51.962 98.981 52.2977 98.677C52.6397 98.373 52.874 97.9423 53.0007 97.385H52.4022C52.3072 97.765 52.1362 98.069 51.8892 98.297C51.6422 98.525 51.3002 98.639 50.8632 98.639C50.5782 98.639 50.3344 98.5788 50.1317 98.4585C49.929 98.3382 49.7612 98.1862 49.6282 98.0025C49.4952 97.8188 49.397 97.613 49.3337 97.385C49.2767 97.1507 49.2482 96.9258 49.2482 96.7105ZM53.8705 94.098V99H54.469V96.264C54.469 96.0043 54.4975 95.7668 54.5545 95.5515C54.6115 95.3298 54.697 95.1398 54.811 94.9815C54.9313 94.8168 55.0833 94.6902 55.267 94.6015C55.457 94.5065 55.6786 94.459 55.932 94.459C56.122 94.459 56.2835 94.4907 56.4165 94.554C56.5495 94.6173 56.654 94.706 56.73 94.82C56.8123 94.9277 56.8693 95.0575 56.901 95.2095C56.939 95.3552 56.958 95.5103 56.958 95.675V99H57.5565V96.226C57.5565 95.998 57.5755 95.7795 57.6135 95.5705C57.6578 95.3552 57.7306 95.1652 57.832 95.0005C57.9333 94.8358 58.0695 94.706 58.2405 94.611C58.4115 94.5097 58.6268 94.459 58.8865 94.459C59.3171 94.459 59.618 94.5667 59.789 94.782C59.96 94.991 60.0455 95.2982 60.0455 95.7035V99H60.644V95.675C60.644 94.5287 60.1025 93.9555 59.0195 93.9555C58.6965 93.9555 58.3925 94.0347 58.1075 94.193C57.8225 94.3513 57.6071 94.592 57.4615 94.915C57.3728 94.592 57.1955 94.3513 56.9295 94.193C56.6698 94.0347 56.3785 93.9555 56.0555 93.9555C55.6565 93.9555 55.3271 94.041 55.0675 94.212C54.8141 94.383 54.6083 94.6205 54.45 94.9245H54.4215V94.098H53.8705ZM70.4321 99V95.5515H67.5536V96.1025H69.8621C69.8684 96.4635 69.8209 96.796 69.7196 97.1C69.6183 97.404 69.4663 97.6668 69.2636 97.8885C69.0609 98.1102 68.8108 98.2843 68.5131 98.411C68.2218 98.5313 67.8893 98.5915 67.5156 98.5915C67.0659 98.5915 66.6796 98.506 66.3566 98.335C66.0336 98.164 65.7676 97.9392 65.5586 97.6605C65.3559 97.3755 65.2039 97.0557 65.1026 96.701C65.0076 96.34 64.9601 95.9758 64.9601 95.6085C64.9601 95.2348 65.0076 94.8707 65.1026 94.516C65.2039 94.1613 65.3559 93.8447 65.5586 93.566C65.7676 93.281 66.0336 93.053 66.3566 92.882C66.6796 92.711 67.0659 92.6255 67.5156 92.6255C67.8386 92.6255 68.1299 92.6793 68.3896 92.787C68.6493 92.8883 68.8709 93.0213 69.0546 93.186C69.2446 93.3507 69.3934 93.5343 69.5011 93.737C69.6151 93.9333 69.6816 94.1297 69.7006 94.326H70.3466C70.2833 93.9523 70.1661 93.6262 69.9951 93.3475C69.8241 93.0688 69.6151 92.8345 69.3681 92.6445C69.1211 92.4545 68.8393 92.312 68.5226 92.217C68.2059 92.122 67.8703 92.0745 67.5156 92.0745C66.9836 92.0745 66.5149 92.1727 66.1096 92.369C65.7106 92.559 65.3781 92.8187 65.1121 93.148C64.8461 93.471 64.6466 93.8447 64.5136 94.269C64.3806 94.6933 64.3141 95.1398 64.3141 95.6085C64.3141 96.0772 64.3806 96.5237 64.5136 96.948C64.6466 97.3723 64.8461 97.746 65.1121 98.069C65.3781 98.392 65.7106 98.6517 66.1096 98.848C66.5149 99.038 66.9836 99.133 67.5156 99.133C67.7626 99.133 68.0001 99.1077 68.2281 99.057C68.4624 99.0063 68.6809 98.9272 68.8836 98.8195C69.0863 98.7055 69.2699 98.563 69.4346 98.392C69.6056 98.2147 69.7481 98.0057 69.8621 97.765H69.8811L69.9666 99H70.4321ZM75.1366 96.207H71.9636C71.9889 95.9853 72.0396 95.77 72.1156 95.561C72.1979 95.3457 72.3056 95.1588 72.4386 95.0005C72.5716 94.8358 72.7331 94.706 72.9231 94.611C73.1131 94.5097 73.3316 94.459 73.5786 94.459C73.8193 94.459 74.0346 94.5097 74.2246 94.611C74.4146 94.706 74.5761 94.8358 74.7091 95.0005C74.8421 95.1588 74.9434 95.3425 75.0131 95.5515C75.0891 95.7605 75.1303 95.979 75.1366 96.207ZM71.9636 96.7105H75.7351C75.7478 96.3685 75.7161 96.0328 75.6401 95.7035C75.5641 95.3678 75.4374 95.0733 75.2601 94.82C75.0891 94.5603 74.8643 94.3513 74.5856 94.193C74.3069 94.0347 73.9713 93.9555 73.5786 93.9555C73.1923 93.9555 72.8566 94.0315 72.5716 94.1835C72.2929 94.3292 72.0649 94.5255 71.8876 94.7725C71.7103 95.0132 71.5773 95.2887 71.4886 95.599C71.4063 95.9093 71.3651 96.226 71.3651 96.549C71.3651 96.8973 71.4063 97.2298 71.4886 97.5465C71.5773 97.8568 71.7103 98.1323 71.8876 98.373C72.0649 98.6073 72.2929 98.7942 72.5716 98.9335C72.8566 99.0665 73.1923 99.133 73.5786 99.133C74.1993 99.133 74.6774 98.981 75.0131 98.677C75.3551 98.373 75.5894 97.9423 75.7161 97.385H75.1176C75.0226 97.765 74.8516 98.069 74.6046 98.297C74.3576 98.525 74.0156 98.639 73.5786 98.639C73.2936 98.639 73.0498 98.5788 72.8471 98.4585C72.6444 98.3382 72.4766 98.1862 72.3436 98.0025C72.2106 97.8188 72.1124 97.613 72.0491 97.385C71.9921 97.1507 71.9636 96.9258 71.9636 96.7105ZM79.5214 95.5325H80.1199C80.1072 95.2665 80.0534 95.0353 79.9584 94.839C79.8634 94.6427 79.7335 94.478 79.5689 94.345C79.4105 94.212 79.2237 94.1138 79.0084 94.0505C78.7994 93.9872 78.5714 93.9555 78.3244 93.9555C78.109 93.9555 77.8905 93.9808 77.6689 94.0315C77.4535 94.0822 77.2572 94.1613 77.0799 94.269C76.9025 94.3767 76.7569 94.5192 76.6429 94.6965C76.5352 94.8738 76.4814 95.086 76.4814 95.333C76.4814 95.542 76.5162 95.7193 76.5859 95.865C76.6555 96.0043 76.7505 96.1247 76.8709 96.226C76.9975 96.321 77.1432 96.4033 77.3079 96.473C77.4725 96.5363 77.653 96.5933 77.8494 96.644L78.6189 96.815C78.7519 96.8467 78.8817 96.8847 79.0084 96.929C79.1414 96.9733 79.2585 97.0303 79.3599 97.1C79.4612 97.1633 79.5404 97.2457 79.5974 97.347C79.6607 97.442 79.6924 97.5623 79.6924 97.708C79.6924 97.879 79.648 98.0247 79.5594 98.145C79.477 98.259 79.3694 98.354 79.2364 98.43C79.1034 98.506 78.9577 98.5598 78.7994 98.5915C78.6474 98.6232 78.4985 98.639 78.3529 98.639C77.9539 98.639 77.6182 98.5377 77.3459 98.335C77.0799 98.126 76.9342 97.8188 76.9089 97.4135H76.3104C76.361 98.0152 76.5637 98.4522 76.9184 98.7245C77.2794 98.9968 77.748 99.133 78.3244 99.133C78.5524 99.133 78.7835 99.1077 79.0179 99.057C79.2522 99.0063 79.4612 98.924 79.6449 98.81C79.8349 98.6897 79.99 98.5377 80.1104 98.354C80.2307 98.164 80.2909 97.936 80.2909 97.67C80.2909 97.4547 80.2497 97.2678 80.1674 97.1095C80.085 96.9512 79.9774 96.8182 79.8444 96.7105C79.7177 96.6028 79.5689 96.5173 79.3979 96.454C79.2332 96.3843 79.0654 96.3368 78.8944 96.3115L78.0964 96.131C77.995 96.1057 77.8842 96.074 77.7639 96.036C77.6435 95.9917 77.5327 95.9378 77.4314 95.8745C77.33 95.8112 77.2445 95.7352 77.1749 95.6465C77.1115 95.5515 77.0799 95.4375 77.0799 95.3045C77.0799 95.1462 77.1147 95.0132 77.1844 94.9055C77.254 94.7978 77.3459 94.7123 77.4599 94.649C77.5739 94.5793 77.6974 94.5318 77.8304 94.5065C77.9697 94.4748 78.1059 94.459 78.2389 94.459C78.4099 94.459 78.5714 94.4812 78.7234 94.5255C78.8754 94.5635 79.0084 94.6268 79.1224 94.7155C79.2427 94.8042 79.3377 94.9182 79.4074 95.0575C79.477 95.1905 79.515 95.3488 79.5214 95.5325ZM82.1571 94.098V92.6255H81.5586V94.098H80.7036V94.6015H81.5586V97.955C81.5523 98.373 81.6283 98.6612 81.7866 98.8195C81.9449 98.9715 82.2236 99.0475 82.6226 99.0475C82.7113 99.0475 82.7999 99.0443 82.8886 99.038C82.9773 99.0317 83.0659 99.0285 83.1546 99.0285V98.525C82.9836 98.544 82.8126 98.5535 82.6416 98.5535C82.4263 98.5408 82.2901 98.4807 82.2331 98.373C82.1824 98.259 82.1571 98.1038 82.1571 97.9075V94.6015H83.1546V94.098H82.1571ZM87.4476 92.274H87.0866C87.0486 92.4007 86.9916 92.5083 86.9156 92.597C86.846 92.6857 86.7383 92.73 86.5926 92.73C86.504 92.73 86.4121 92.7078 86.3171 92.6635C86.2285 92.6192 86.1303 92.5717 86.0226 92.521C85.9213 92.4703 85.8105 92.4228 85.6901 92.3785C85.5698 92.3342 85.4431 92.312 85.3101 92.312C85.1898 92.312 85.079 92.3405 84.9776 92.3975C84.8763 92.4482 84.7908 92.5178 84.7211 92.6065C84.6515 92.6888 84.5945 92.7838 84.5501 92.8915C84.5058 92.9992 84.4773 93.11 84.4646 93.224H84.8351C84.8351 93.0657 84.8826 92.9453 84.9776 92.863C85.0726 92.7807 85.193 92.7395 85.3386 92.7395C85.421 92.7395 85.5096 92.7617 85.6046 92.806C85.6996 92.8503 85.801 92.901 85.9086 92.958C86.0163 93.015 86.1303 93.0657 86.2506 93.11C86.371 93.1543 86.4945 93.1765 86.6211 93.1765C86.7478 93.1765 86.8586 93.1512 86.9536 93.1005C87.0486 93.0435 87.1278 92.9738 87.1911 92.8915C87.2608 92.8028 87.3146 92.7047 87.3526 92.597C87.397 92.4893 87.4286 92.3817 87.4476 92.274ZM84.0086 95.599H84.6071C84.6198 95.2 84.7465 94.9118 84.9871 94.7345C85.2278 94.5508 85.5381 94.459 85.9181 94.459C86.0955 94.459 86.2601 94.4748 86.4121 94.5065C86.5705 94.5318 86.7066 94.5825 86.8206 94.6585C86.941 94.7345 87.0328 94.839 87.0961 94.972C87.1658 95.0987 87.2006 95.2633 87.2006 95.466C87.2006 95.599 87.1816 95.7067 87.1436 95.789C87.112 95.8713 87.0645 95.9378 87.0011 95.9885C86.9378 96.0328 86.8586 96.0645 86.7636 96.0835C86.6686 96.1025 86.5578 96.1183 86.4311 96.131C86.1081 96.169 85.7883 96.2102 85.4716 96.2545C85.1613 96.2925 84.8795 96.3622 84.6261 96.4635C84.3791 96.5648 84.1796 96.7137 84.0276 96.91C83.8756 97.1 83.7996 97.366 83.7996 97.708C83.7996 97.955 83.8408 98.1703 83.9231 98.354C84.0118 98.5313 84.129 98.6802 84.2746 98.8005C84.4266 98.9145 84.6008 98.9968 84.7971 99.0475C84.9998 99.1045 85.2151 99.133 85.4431 99.133C85.6838 99.133 85.8896 99.1108 86.0606 99.0665C86.238 99.0222 86.3931 98.9588 86.5261 98.8765C86.6655 98.7942 86.789 98.6928 86.8966 98.5725C87.0106 98.4458 87.1215 98.3033 87.2291 98.145H87.2481C87.2481 98.2717 87.2545 98.3888 87.2671 98.4965C87.2861 98.5978 87.321 98.6865 87.3716 98.7625C87.4223 98.8385 87.492 98.8987 87.5806 98.943C87.6756 98.981 87.7991 99 87.9511 99C88.0335 99 88.1 98.9968 88.1506 98.9905C88.2076 98.9842 88.271 98.9747 88.3406 98.962V98.4585C88.2836 98.4838 88.2203 98.4965 88.1506 98.4965C87.9163 98.4965 87.7991 98.3762 87.7991 98.1355V95.5325C87.7991 95.2032 87.7453 94.9372 87.6376 94.7345C87.53 94.5255 87.3906 94.364 87.2196 94.25C87.0486 94.136 86.8555 94.06 86.6401 94.022C86.4248 93.9777 86.2095 93.9555 85.9941 93.9555C85.7091 93.9555 85.4495 93.9872 85.2151 94.0505C84.9808 94.1138 84.775 94.212 84.5976 94.345C84.4266 94.478 84.2905 94.649 84.1891 94.858C84.0878 95.067 84.0276 95.314 84.0086 95.599ZM87.2006 96.321V97.1C87.2006 97.3407 87.1531 97.556 87.0581 97.746C86.9695 97.936 86.846 98.0975 86.6876 98.2305C86.5356 98.3635 86.3551 98.4648 86.1461 98.5345C85.9371 98.6042 85.7186 98.639 85.4906 98.639C85.3513 98.639 85.2151 98.6168 85.0821 98.5725C84.9491 98.5282 84.832 98.4648 84.7306 98.3825C84.6293 98.2938 84.547 98.1925 84.4836 98.0785C84.4266 97.9582 84.3981 97.822 84.3981 97.67C84.3981 97.4293 84.4678 97.2457 84.6071 97.119C84.7528 96.986 84.9365 96.8847 85.1581 96.815C85.3798 96.7453 85.6236 96.6947 85.8896 96.663C86.162 96.625 86.4248 96.5838 86.6781 96.5395C86.7605 96.5268 86.8555 96.5047 86.9631 96.473C87.0708 96.4413 87.1436 96.3907 87.1816 96.321H87.2006ZM91.1104 94.459C91.3954 94.459 91.6456 94.5192 91.8609 94.6395C92.0762 94.7598 92.2536 94.9182 92.3929 95.1145C92.5386 95.3108 92.6462 95.5357 92.7159 95.789C92.7919 96.036 92.8299 96.2893 92.8299 96.549C92.8299 96.8087 92.7919 97.0652 92.7159 97.3185C92.6462 97.5655 92.5386 97.7872 92.3929 97.9835C92.2536 98.1798 92.0762 98.3382 91.8609 98.4585C91.6456 98.5788 91.3954 98.639 91.1104 98.639C90.8254 98.639 90.5752 98.5788 90.3599 98.4585C90.1446 98.3382 89.9641 98.1798 89.8184 97.9835C89.6791 97.7872 89.5714 97.5655 89.4954 97.3185C89.4257 97.0652 89.3909 96.8087 89.3909 96.549C89.3909 96.2893 89.4257 96.036 89.4954 95.789C89.5714 95.5357 89.6791 95.3108 89.8184 95.1145C89.9641 94.9182 90.1446 94.7598 90.3599 94.6395C90.5752 94.5192 90.8254 94.459 91.1104 94.459ZM91.1104 93.9555C90.7367 93.9555 90.4042 94.0252 90.1129 94.1645C89.8279 94.3038 89.5872 94.4907 89.3909 94.725C89.1946 94.9593 89.0457 95.2348 88.9444 95.5515C88.8431 95.8618 88.7924 96.1943 88.7924 96.549C88.7924 96.9037 88.8431 97.2393 88.9444 97.556C89.0457 97.8663 89.1946 98.1387 89.3909 98.373C89.5872 98.6073 89.8279 98.7942 90.1129 98.9335C90.4042 99.0665 90.7367 99.133 91.1104 99.133C91.4841 99.133 91.8134 99.0665 92.0984 98.9335C92.3897 98.7942 92.6336 98.6073 92.8299 98.373C93.0262 98.1387 93.1751 97.8663 93.2764 97.556C93.3777 97.2393 93.4284 96.9037 93.4284 96.549C93.4284 96.1943 93.3777 95.8618 93.2764 95.5515C93.1751 95.2348 93.0262 94.9593 92.8299 94.725C92.6336 94.4907 92.3897 94.3038 92.0984 94.1645C91.8134 94.0252 91.4841 93.9555 91.1104 93.9555ZM101.37 99V92.217H100.772V95.029H100.753C100.689 94.8517 100.598 94.6965 100.477 94.5635C100.363 94.4305 100.23 94.3197 100.078 94.231C99.9262 94.136 99.7616 94.0663 99.5842 94.022C99.4132 93.9777 99.2359 93.9555 99.0522 93.9555C98.6786 93.9555 98.3524 94.0252 98.0737 94.1645C97.8014 94.3038 97.5734 94.4938 97.3897 94.7345C97.2061 94.9688 97.0699 95.2443 96.9812 95.561C96.8926 95.8713 96.8482 96.2007 96.8482 96.549C96.8482 96.8973 96.8926 97.2298 96.9812 97.5465C97.0699 97.8568 97.2061 98.1323 97.3897 98.373C97.5734 98.6073 97.8014 98.7942 98.0737 98.9335C98.3524 99.0665 98.6786 99.133 99.0522 99.133C99.2296 99.133 99.4069 99.1077 99.5842 99.057C99.7679 99.0063 99.9389 98.9367 100.097 98.848C100.256 98.753 100.395 98.639 100.515 98.506C100.642 98.373 100.737 98.2273 100.8 98.069H100.819V99H101.37ZM97.4467 96.549C97.4467 96.2957 97.4752 96.0455 97.5322 95.7985C97.5956 95.5452 97.6906 95.3203 97.8172 95.124C97.9502 94.9277 98.1181 94.7693 98.3207 94.649C98.5234 94.5223 98.7672 94.459 99.0522 94.459C99.3689 94.459 99.6349 94.5223 99.8502 94.649C100.072 94.7693 100.249 94.9277 100.382 95.124C100.522 95.3203 100.62 95.5452 100.677 95.7985C100.74 96.0455 100.772 96.2957 100.772 96.549C100.772 96.8023 100.74 97.0557 100.677 97.309C100.62 97.556 100.522 97.7777 100.382 97.974C100.249 98.1703 100.072 98.3318 99.8502 98.4585C99.6349 98.5788 99.3689 98.639 99.0522 98.639C98.7672 98.639 98.5234 98.5788 98.3207 98.4585C98.1181 98.3318 97.9502 98.1703 97.8172 97.974C97.6906 97.7777 97.5956 97.556 97.5322 97.309C97.4752 97.0557 97.4467 96.8023 97.4467 96.549ZM102.503 95.599H103.101C103.114 95.2 103.241 94.9118 103.481 94.7345C103.722 94.5508 104.032 94.459 104.412 94.459C104.59 94.459 104.754 94.4748 104.906 94.5065C105.065 94.5318 105.201 94.5825 105.315 94.6585C105.435 94.7345 105.527 94.839 105.59 94.972C105.66 95.0987 105.695 95.2633 105.695 95.466C105.695 95.599 105.676 95.7067 105.638 95.789C105.606 95.8713 105.559 95.9378 105.495 95.9885C105.432 96.0328 105.353 96.0645 105.258 96.0835C105.163 96.1025 105.052 96.1183 104.925 96.131C104.602 96.169 104.282 96.2102 103.966 96.2545C103.655 96.2925 103.374 96.3622 103.12 96.4635C102.873 96.5648 102.674 96.7137 102.522 96.91C102.37 97.1 102.294 97.366 102.294 97.708C102.294 97.955 102.335 98.1703 102.417 98.354C102.506 98.5313 102.623 98.6802 102.769 98.8005C102.921 98.9145 103.095 98.9968 103.291 99.0475C103.494 99.1045 103.709 99.133 103.937 99.133C104.178 99.133 104.384 99.1108 104.555 99.0665C104.732 99.0222 104.887 98.9588 105.02 98.8765C105.16 98.7942 105.283 98.6928 105.391 98.5725C105.505 98.4458 105.616 98.3033 105.723 98.145H105.742C105.742 98.2717 105.749 98.3888 105.761 98.4965C105.78 98.5978 105.815 98.6865 105.866 98.7625C105.916 98.8385 105.986 98.8987 106.075 98.943C106.17 98.981 106.293 99 106.445 99C106.528 99 106.594 98.9968 106.645 98.9905C106.702 98.9842 106.765 98.9747 106.835 98.962V98.4585C106.778 98.4838 106.714 98.4965 106.645 98.4965C106.41 98.4965 106.293 98.3762 106.293 98.1355V95.5325C106.293 95.2032 106.239 94.9372 106.132 94.7345C106.024 94.5255 105.885 94.364 105.714 94.25C105.543 94.136 105.35 94.06 105.134 94.022C104.919 93.9777 104.704 93.9555 104.488 93.9555C104.203 93.9555 103.944 93.9872 103.709 94.0505C103.475 94.1138 103.269 94.212 103.092 94.345C102.921 94.478 102.785 94.649 102.683 94.858C102.582 95.067 102.522 95.314 102.503 95.599ZM105.695 96.321V97.1C105.695 97.3407 105.647 97.556 105.552 97.746C105.464 97.936 105.34 98.0975 105.182 98.2305C105.03 98.3635 104.849 98.4648 104.64 98.5345C104.431 98.6042 104.213 98.639 103.985 98.639C103.845 98.639 103.709 98.6168 103.576 98.5725C103.443 98.5282 103.326 98.4648 103.225 98.3825C103.123 98.2938 103.041 98.1925 102.978 98.0785C102.921 97.9582 102.892 97.822 102.892 97.67C102.892 97.4293 102.962 97.2457 103.101 97.119C103.247 96.986 103.431 96.8847 103.652 96.815C103.874 96.7453 104.118 96.6947 104.384 96.663C104.656 96.625 104.919 96.5838 105.172 96.5395C105.255 96.5268 105.35 96.5047 105.457 96.473C105.565 96.4413 105.638 96.3907 105.676 96.321H105.695ZM110.387 92.217V99H111.033V92.217H110.387ZM112.369 94.098V99H112.968V96.1405C112.974 95.8998 113.012 95.6782 113.082 95.4755C113.158 95.2665 113.259 95.0892 113.386 94.9435C113.519 94.7915 113.677 94.6743 113.861 94.592C114.051 94.5033 114.266 94.459 114.507 94.459C114.747 94.459 114.947 94.497 115.105 94.573C115.27 94.649 115.4 94.7535 115.495 94.8865C115.59 95.0195 115.656 95.1778 115.694 95.3615C115.732 95.5388 115.751 95.732 115.751 95.941V99H116.35V95.846C116.35 95.5547 116.321 95.2918 116.264 95.0575C116.207 94.8232 116.109 94.6268 115.97 94.4685C115.83 94.3038 115.643 94.1772 115.409 94.0885C115.181 93.9998 114.896 93.9555 114.554 93.9555C114.206 93.9555 113.886 94.0473 113.595 94.231C113.303 94.4083 113.101 94.6458 112.987 94.9435H112.968V94.098H112.369ZM119.6 94.459C119.885 94.459 120.135 94.5192 120.35 94.6395C120.565 94.7598 120.743 94.9182 120.882 95.1145C121.028 95.3108 121.135 95.5357 121.205 95.789C121.281 96.036 121.319 96.2893 121.319 96.549C121.319 96.8087 121.281 97.0652 121.205 97.3185C121.135 97.5655 121.028 97.7872 120.882 97.9835C120.743 98.1798 120.565 98.3382 120.35 98.4585C120.135 98.5788 119.885 98.639 119.6 98.639C119.315 98.639 119.064 98.5788 118.849 98.4585C118.634 98.3382 118.453 98.1798 118.308 97.9835C118.168 97.7872 118.061 97.5655 117.985 97.3185C117.915 97.0652 117.88 96.8087 117.88 96.549C117.88 96.2893 117.915 96.036 117.985 95.789C118.061 95.5357 118.168 95.3108 118.308 95.1145C118.453 94.9182 118.634 94.7598 118.849 94.6395C119.064 94.5192 119.315 94.459 119.6 94.459ZM119.6 93.9555C119.226 93.9555 118.893 94.0252 118.602 94.1645C118.317 94.3038 118.076 94.4907 117.88 94.725C117.684 94.9593 117.535 95.2348 117.434 95.5515C117.332 95.8618 117.282 96.1943 117.282 96.549C117.282 96.9037 117.332 97.2393 117.434 97.556C117.535 97.8663 117.684 98.1387 117.88 98.373C118.076 98.6073 118.317 98.7942 118.602 98.9335C118.893 99.0665 119.226 99.133 119.6 99.133C119.973 99.133 120.303 99.0665 120.588 98.9335C120.879 98.7942 121.123 98.6073 121.319 98.373C121.515 98.1387 121.664 97.8663 121.766 97.556C121.867 97.2393 121.918 96.9037 121.918 96.549C121.918 96.1943 121.867 95.8618 121.766 95.5515C121.664 95.2348 121.515 94.9593 121.319 94.725C121.123 94.4907 120.879 94.3038 120.588 94.1645C120.303 94.0252 119.973 93.9555 119.6 93.9555ZM122.304 94.098L124.194 99H124.831L126.664 94.098H126.047L124.527 98.4015H124.508L122.969 94.098H122.304ZM127.243 95.599H127.841C127.854 95.2 127.981 94.9118 128.221 94.7345C128.462 94.5508 128.772 94.459 129.152 94.459C129.33 94.459 129.494 94.4748 129.646 94.5065C129.805 94.5318 129.941 94.5825 130.055 94.6585C130.175 94.7345 130.267 94.839 130.33 94.972C130.4 95.0987 130.435 95.2633 130.435 95.466C130.435 95.599 130.416 95.7067 130.378 95.789C130.346 95.8713 130.299 95.9378 130.235 95.9885C130.172 96.0328 130.093 96.0645 129.998 96.0835C129.903 96.1025 129.792 96.1183 129.665 96.131C129.342 96.169 129.023 96.2102 128.706 96.2545C128.396 96.2925 128.114 96.3622 127.86 96.4635C127.613 96.5648 127.414 96.7137 127.262 96.91C127.11 97.1 127.034 97.366 127.034 97.708C127.034 97.955 127.075 98.1703 127.157 98.354C127.246 98.5313 127.363 98.6802 127.509 98.8005C127.661 98.9145 127.835 98.9968 128.031 99.0475C128.234 99.1045 128.449 99.133 128.677 99.133C128.918 99.133 129.124 99.1108 129.295 99.0665C129.472 99.0222 129.627 98.9588 129.76 98.8765C129.9 98.7942 130.023 98.6928 130.131 98.5725C130.245 98.4458 130.356 98.3033 130.463 98.145H130.482C130.482 98.2717 130.489 98.3888 130.501 98.4965C130.52 98.5978 130.555 98.6865 130.606 98.7625C130.657 98.8385 130.726 98.8987 130.815 98.943C130.91 98.981 131.033 99 131.185 99C131.268 99 131.334 98.9968 131.385 98.9905C131.442 98.9842 131.505 98.9747 131.575 98.962V98.4585C131.518 98.4838 131.455 98.4965 131.385 98.4965C131.151 98.4965 131.033 98.3762 131.033 98.1355V95.5325C131.033 95.2032 130.98 94.9372 130.872 94.7345C130.764 94.5255 130.625 94.364 130.454 94.25C130.283 94.136 130.09 94.06 129.874 94.022C129.659 93.9777 129.444 93.9555 129.228 93.9555C128.943 93.9555 128.684 93.9872 128.449 94.0505C128.215 94.1138 128.009 94.212 127.832 94.345C127.661 94.478 127.525 94.649 127.423 94.858C127.322 95.067 127.262 95.314 127.243 95.599ZM130.435 96.321V97.1C130.435 97.3407 130.387 97.556 130.292 97.746C130.204 97.936 130.08 98.0975 129.922 98.2305C129.77 98.3635 129.589 98.4648 129.38 98.5345C129.171 98.6042 128.953 98.639 128.725 98.639C128.586 98.639 128.449 98.6168 128.316 98.5725C128.183 98.5282 128.066 98.4648 127.965 98.3825C127.864 98.2938 127.781 98.1925 127.718 98.0785C127.661 97.9582 127.632 97.822 127.632 97.67C127.632 97.4293 127.702 97.2457 127.841 97.119C127.987 96.986 128.171 96.8847 128.392 96.815C128.614 96.7453 128.858 96.6947 129.124 96.663C129.396 96.625 129.659 96.5838 129.912 96.5395C129.995 96.5268 130.09 96.5047 130.197 96.473C130.305 96.4413 130.378 96.3907 130.416 96.321H130.435ZM136.368 97.2425H135.77C135.751 97.4452 135.7 97.632 135.618 97.803C135.535 97.974 135.431 98.1228 135.304 98.2495C135.178 98.3698 135.032 98.4648 134.867 98.5345C134.703 98.6042 134.528 98.639 134.345 98.639C134.06 98.639 133.81 98.5788 133.594 98.4585C133.379 98.3382 133.198 98.1798 133.053 97.9835C132.913 97.7872 132.806 97.5655 132.73 97.3185C132.66 97.0652 132.625 96.8087 132.625 96.549C132.625 96.2893 132.66 96.036 132.73 95.789C132.806 95.5357 132.913 95.3108 133.053 95.1145C133.198 94.9182 133.379 94.7598 133.594 94.6395C133.81 94.5192 134.06 94.459 134.345 94.459C134.744 94.459 135.054 94.5635 135.276 94.7725C135.497 94.9815 135.649 95.2697 135.732 95.637H136.33C136.261 95.0733 136.042 94.6522 135.675 94.3735C135.314 94.0948 134.87 93.9555 134.345 93.9555C133.971 93.9555 133.639 94.0252 133.347 94.1645C133.062 94.3038 132.822 94.4907 132.625 94.725C132.429 94.9593 132.28 95.2348 132.179 95.5515C132.077 95.8618 132.027 96.1943 132.027 96.549C132.027 96.8783 132.071 97.1918 132.16 97.4895C132.248 97.7808 132.378 98.0405 132.549 98.2685C132.72 98.4965 132.932 98.6865 133.186 98.8385C133.439 98.9842 133.73 99.076 134.06 99.114L133.575 99.741L133.727 99.8835C133.841 99.8328 134.003 99.8075 134.212 99.8075C134.319 99.8075 134.414 99.8392 134.497 99.9025C134.579 99.9658 134.62 100.055 134.62 100.169C134.62 100.314 134.57 100.419 134.468 100.482C134.367 100.545 134.25 100.577 134.117 100.577C133.977 100.577 133.838 100.561 133.699 100.53C133.559 100.504 133.449 100.476 133.366 100.444L133.233 100.748C133.373 100.818 133.518 100.868 133.67 100.9C133.822 100.932 133.974 100.948 134.126 100.948C134.247 100.948 134.367 100.932 134.487 100.9C134.614 100.868 134.728 100.818 134.829 100.748C134.931 100.685 135.013 100.602 135.076 100.501C135.14 100.4 135.171 100.276 135.171 100.131C135.171 99.9848 135.133 99.8677 135.057 99.779C134.988 99.6903 134.896 99.6238 134.782 99.5795C134.674 99.5415 134.557 99.5193 134.43 99.513C134.304 99.513 134.183 99.5225 134.069 99.5415L134.383 99.133C134.921 99.1203 135.364 98.9525 135.713 98.6295C136.067 98.3002 136.286 97.8378 136.368 97.2425ZM140.629 92.274H140.268C140.23 92.4007 140.173 92.5083 140.097 92.597C140.028 92.6857 139.92 92.73 139.774 92.73C139.686 92.73 139.594 92.7078 139.499 92.6635C139.41 92.6192 139.312 92.5717 139.204 92.521C139.103 92.4703 138.992 92.4228 138.872 92.3785C138.752 92.3342 138.625 92.312 138.492 92.312C138.372 92.312 138.261 92.3405 138.159 92.3975C138.058 92.4482 137.973 92.5178 137.903 92.6065C137.833 92.6888 137.776 92.7838 137.732 92.8915C137.688 92.9992 137.659 93.11 137.646 93.224H138.017C138.017 93.0657 138.064 92.9453 138.159 92.863C138.254 92.7807 138.375 92.7395 138.52 92.7395C138.603 92.7395 138.691 92.7617 138.786 92.806C138.881 92.8503 138.983 92.901 139.09 92.958C139.198 93.015 139.312 93.0657 139.432 93.11C139.553 93.1543 139.676 93.1765 139.803 93.1765C139.93 93.1765 140.04 93.1512 140.135 93.1005C140.23 93.0435 140.31 92.9738 140.373 92.8915C140.443 92.8028 140.496 92.7047 140.534 92.597C140.579 92.4893 140.61 92.3817 140.629 92.274ZM137.19 95.599H137.789C137.802 95.2 137.928 94.9118 138.169 94.7345C138.41 94.5508 138.72 94.459 139.1 94.459C139.277 94.459 139.442 94.4748 139.594 94.5065C139.752 94.5318 139.888 94.5825 140.002 94.6585C140.123 94.7345 140.215 94.839 140.278 94.972C140.348 95.0987 140.382 95.2633 140.382 95.466C140.382 95.599 140.363 95.7067 140.325 95.789C140.294 95.8713 140.246 95.9378 140.183 95.9885C140.12 96.0328 140.04 96.0645 139.945 96.0835C139.85 96.1025 139.74 96.1183 139.613 96.131C139.29 96.169 138.97 96.2102 138.653 96.2545C138.343 96.2925 138.061 96.3622 137.808 96.4635C137.561 96.5648 137.361 96.7137 137.209 96.91C137.057 97.1 136.981 97.366 136.981 97.708C136.981 97.955 137.023 98.1703 137.105 98.354C137.194 98.5313 137.311 98.6802 137.456 98.8005C137.608 98.9145 137.783 98.9968 137.979 99.0475C138.182 99.1045 138.397 99.133 138.625 99.133C138.866 99.133 139.071 99.1108 139.242 99.0665C139.42 99.0222 139.575 98.9588 139.708 98.8765C139.847 98.7942 139.971 98.6928 140.078 98.5725C140.192 98.4458 140.303 98.3033 140.411 98.145H140.43C140.43 98.2717 140.436 98.3888 140.449 98.4965C140.468 98.5978 140.503 98.6865 140.553 98.7625C140.604 98.8385 140.674 98.8987 140.762 98.943C140.857 98.981 140.981 99 141.133 99C141.215 99 141.282 98.9968 141.332 98.9905C141.389 98.9842 141.453 98.9747 141.522 98.962V98.4585C141.465 98.4838 141.402 98.4965 141.332 98.4965C141.098 98.4965 140.981 98.3762 140.981 98.1355V95.5325C140.981 95.2032 140.927 94.9372 140.819 94.7345C140.712 94.5255 140.572 94.364 140.401 94.25C140.23 94.136 140.037 94.06 139.822 94.022C139.607 93.9777 139.391 93.9555 139.176 93.9555C138.891 93.9555 138.631 93.9872 138.397 94.0505C138.163 94.1138 137.957 94.212 137.779 94.345C137.608 94.478 137.472 94.649 137.371 94.858C137.27 95.067 137.209 95.314 137.19 95.599ZM140.382 96.321V97.1C140.382 97.3407 140.335 97.556 140.24 97.746C140.151 97.936 140.028 98.0975 139.869 98.2305C139.717 98.3635 139.537 98.4648 139.328 98.5345C139.119 98.6042 138.9 98.639 138.672 98.639C138.533 98.639 138.397 98.6168 138.264 98.5725C138.131 98.5282 138.014 98.4648 137.912 98.3825C137.811 98.2938 137.729 98.1925 137.665 98.0785C137.608 97.9582 137.58 97.822 137.58 97.67C137.58 97.4293 137.65 97.2457 137.789 97.119C137.935 96.986 138.118 96.8847 138.34 96.815C138.562 96.7453 138.805 96.6947 139.071 96.663C139.344 96.625 139.607 96.5838 139.86 96.5395C139.942 96.5268 140.037 96.5047 140.145 96.473C140.253 96.4413 140.325 96.3907 140.363 96.321H140.382ZM144.292 94.459C144.577 94.459 144.827 94.5192 145.043 94.6395C145.258 94.7598 145.435 94.9182 145.575 95.1145C145.72 95.3108 145.828 95.5357 145.898 95.789C145.974 96.036 146.012 96.2893 146.012 96.549C146.012 96.8087 145.974 97.0652 145.898 97.3185C145.828 97.5655 145.72 97.7872 145.575 97.9835C145.435 98.1798 145.258 98.3382 145.043 98.4585C144.827 98.5788 144.577 98.639 144.292 98.639C144.007 98.639 143.757 98.5788 143.542 98.4585C143.326 98.3382 143.146 98.1798 143 97.9835C142.861 97.7872 142.753 97.5655 142.677 97.3185C142.608 97.0652 142.573 96.8087 142.573 96.549C142.573 96.2893 142.608 96.036 142.677 95.789C142.753 95.5357 142.861 95.3108 143 95.1145C143.146 94.9182 143.326 94.7598 143.542 94.6395C143.757 94.5192 144.007 94.459 144.292 94.459ZM144.292 93.9555C143.919 93.9555 143.586 94.0252 143.295 94.1645C143.01 94.3038 142.769 94.4907 142.573 94.725C142.376 94.9593 142.228 95.2348 142.126 95.5515C142.025 95.8618 141.974 96.1943 141.974 96.549C141.974 96.9037 142.025 97.2393 142.126 97.556C142.228 97.8663 142.376 98.1387 142.573 98.373C142.769 98.6073 143.01 98.7942 143.295 98.9335C143.586 99.0665 143.919 99.133 144.292 99.133C144.666 99.133 144.995 99.0665 145.28 98.9335C145.572 98.7942 145.815 98.6073 146.012 98.373C146.208 98.1387 146.357 97.8663 146.458 97.556C146.56 97.2393 146.61 96.9037 146.61 96.549C146.61 96.1943 146.56 95.8618 146.458 95.5515C146.357 95.2348 146.208 94.9593 146.012 94.725C145.815 94.4907 145.572 94.3038 145.28 94.1645C144.995 94.0252 144.666 93.9555 144.292 93.9555Z" fill="white"/>
<path d="M105.994 21.6088L109.26 16.9893C109.26 16.9893 106.517 14.5513 106.255 11.3433C105.994 8.13535 107.823 4.15747 114.747 3.51588C121.671 2.87429 132.776 4.41411 139.7 15.7061C139.7 15.7061 142.574 20.069 140.222 24.1752C137.871 28.2814 132.906 32.2592 132.906 32.2592C132.906 32.2592 127.811 36.1088 127.419 39.5734V44.7061C127.419 44.7061 130.163 44.8345 130.947 45.4761C131.73 46.1176 132.802 46.3743 132.854 45.4761C132.906 44.5778 132.384 42.9097 134.343 42.653C136.303 42.3964 137.74 42.7814 139.046 44.0646C140.353 45.3477 142.051 45.0911 142.051 45.0911C142.051 45.0911 144.533 44.7061 144.403 42.9097C144.272 41.1132 145.186 40.0867 145.578 39.9584C145.97 39.83 146.493 39.83 146.493 38.5469C146.493 38.5469 147.538 38.2902 147.407 37.392C147.277 36.4938 146.885 34.8256 147.669 34.4407C148.452 34.0557 149.759 33.4141 149.628 32.9008C149.498 32.3876 147.015 31.4893 147.015 28.2814C147.015 26.3822 147.473 25.2017 147.852 24.5473C148.4 23.5977 148.727 22.5327 148.727 21.4292C148.727 19.6199 148.139 17.015 145.578 14.2946C140.875 9.29022 127.681 -1.74518 110.305 2.61765C110.305 2.61765 96.9798 7.62207 105.994 21.6088Z" fill="white"/>
<path d="M103.381 21.6088L106.647 16.9893C106.647 16.9893 103.904 14.5513 103.642 11.3433C103.381 8.13537 105.21 4.15749 112.134 3.5159C119.058 2.87431 130.163 4.41413 137.087 15.7062C137.087 15.7062 139.961 20.069 137.609 24.1752C135.258 28.2814 130.293 32.2593 130.293 32.2593C130.293 32.2593 125.198 36.1088 124.806 39.5734V44.7062C124.806 44.7062 127.55 44.8345 128.334 45.4761C129.117 46.1177 130.189 46.3743 130.241 45.4761C130.293 44.5778 129.771 42.9097 131.73 42.6531C133.69 42.3964 135.127 42.7814 136.433 44.0646C137.74 45.3478 139.438 45.0911 139.438 45.0911C139.438 45.0911 141.92 44.7062 141.79 42.9097C141.659 41.1132 142.574 40.0867 142.965 39.9584C143.357 39.8301 143.88 39.8301 143.88 38.5469C143.88 38.5469 144.925 38.2902 144.794 37.392C144.664 36.4938 144.272 34.8256 145.056 34.4407C145.84 34.0557 147.146 33.4141 147.015 32.9009C146.885 32.3876 144.403 31.4893 144.403 28.2814C144.403 26.3823 144.86 25.2017 145.239 24.5473C145.787 23.5978 146.114 22.5327 146.114 21.4292C146.114 19.6199 145.526 17.015 142.965 14.2947C138.367 9.39289 125.642 -1.27038 108.816 2.3482C107.888 2.54068 107.013 2.88714 106.19 3.34909C102.976 5.17121 94.994 9.30307 103.381 21.6088Z" fill="white"/>
<path d="M100.246 21.6217L103.512 17.0023C103.512 17.0023 100.768 14.5642 100.507 11.3562C100.246 8.14828 102.075 4.1704 108.999 3.52881C115.923 2.88722 127.027 4.42704 133.951 15.7191C133.951 15.7191 136.825 20.0819 134.474 24.1881C132.122 28.2943 127.158 32.2722 127.158 32.2722C127.158 32.2722 122.063 36.1217 121.671 39.5863V44.7191C121.671 44.7191 124.414 44.8474 125.198 45.489C125.982 46.1306 127.053 46.3872 127.106 45.489C127.158 44.5908 126.635 42.9226 128.595 42.666C130.555 42.4093 131.992 42.7943 133.298 44.0775C134.605 45.3607 136.303 45.104 136.303 45.104C136.303 45.104 138.785 44.7191 138.654 42.9226C138.524 41.1262 139.438 40.0996 139.83 39.9713C140.222 39.843 140.745 39.843 140.745 38.5598C140.745 38.5598 141.79 38.3032 141.659 37.4049C141.528 36.5067 141.137 34.8385 141.92 34.4536C142.704 34.0686 144.011 33.427 143.88 32.9138C143.749 32.4005 141.267 31.5023 141.267 28.2943C141.267 26.3952 141.724 25.2147 142.103 24.5602C142.652 23.6107 142.979 22.5456 142.979 21.4421C142.979 19.6328 142.391 17.0279 139.83 14.3076C135.349 9.53412 123.134 -0.731367 106.935 2.11731C104.296 2.57925 101.84 3.81111 99.9976 5.72306C97.228 8.61023 95.1116 13.6531 100.246 21.6217Z" fill="white"/>
<path d="M129.248 56.5885C131.954 56.5885 134.147 54.4341 134.147 51.7765C134.147 49.119 131.954 46.9646 129.248 46.9646C126.543 46.9646 124.349 49.119 124.349 51.7765C124.349 54.4341 126.543 56.5885 129.248 56.5885Z" fill="white"/>
<path d="M126.635 56.5885C129.341 56.5885 131.534 54.4341 131.534 51.7765C131.534 49.119 129.341 46.9646 126.635 46.9646C123.93 46.9646 121.736 49.119 121.736 51.7765C121.736 54.4341 123.93 56.5885 126.635 56.5885Z" fill="white"/>
<path d="M123.369 56.5885C126.075 56.5885 128.268 54.4341 128.268 51.7765C128.268 49.119 126.075 46.9646 123.369 46.9646C120.664 46.9646 118.47 49.119 118.47 51.7765C118.47 54.4341 120.664 56.5885 123.369 56.5885Z" fill="white"/>
</svg>
