<svg width="202" height="58" viewBox="0 0 202 58" fill="none" xmlns="http://www.w3.org/2000/svg">
<path d="M68.65 9.156L55.448 42H57.61L61.796 31.466H77.528L81.668 42H83.83L70.858 9.156H68.65ZM62.44 29.718L69.754 11.134H69.846L76.884 29.718H62.44ZM104.934 25.67C104.428 20.288 100.288 17.804 95.1816 17.804C88.1896 17.804 84.3256 23.37 84.3256 29.948C84.3256 36.526 87.4996 42.552 95.1816 42.552C100.288 42.552 104.382 39.332 105.164 33.674H103.416C102.818 37.998 99.5976 41.034 95.1816 41.034C89.0636 41.034 86.0736 36.342 86.0736 29.948C86.0736 24.566 89.2476 19.322 95.1816 19.322C99.4596 19.322 102.864 21.484 103.186 25.67H104.934ZM117.471 18.356H112.319V10.996H110.571V18.356H106.201V19.874H110.571V36.388C110.387 41.724 113.837 42.23 117.425 42V40.482C114.113 40.574 112.319 40.206 112.319 36.388V19.874H117.471V18.356ZM135.907 32.984C135.907 34.226 135.033 41.034 127.075 41.034C122.935 41.034 120.865 38.734 120.865 35.882C120.865 32.34 123.211 30.868 127.351 30.408C130.755 29.948 134.527 30.132 135.907 28.568V32.984ZM137.655 23.968C137.655 19.092 133.515 17.804 129.375 17.804C123.809 17.804 120.589 20.426 120.359 25.624H122.107C122.337 21.53 125.143 19.322 129.375 19.322C134.757 19.322 135.953 22.91 135.953 23.968C135.953 27.832 135.631 28.338 127.811 28.89C123.901 29.212 119.117 30.362 119.117 35.882C119.117 40.85 122.567 42.552 127.029 42.552C131.537 42.552 134.711 40.114 135.815 37.308H135.907V38.55C135.907 40.482 136.321 42 139.081 42C139.541 42 140.001 41.908 140.507 41.816V40.344C139.955 40.436 139.541 40.482 139.219 40.482C137.655 40.482 137.655 39.01 137.655 37.63V23.968ZM153.617 41.034C146.947 41.034 144.969 35.836 144.969 30.224C144.969 24.612 147.315 19.322 153.617 19.322C159.965 19.322 162.495 24.842 162.495 30.224C162.495 36.066 159.781 41.034 153.617 41.034ZM144.923 18.356H143.175V50.464H144.923V37.078H145.015C146.395 40.896 149.707 42.552 153.617 42.552C160.839 42.552 164.243 37.4 164.243 30.224C164.243 23.554 160.885 17.804 153.617 17.804C148.419 17.804 145.751 21.438 145.015 23.784H144.923V18.356ZM183.548 32.984C183.548 34.226 182.674 41.034 174.716 41.034C170.576 41.034 168.506 38.734 168.506 35.882C168.506 32.34 170.852 30.868 174.992 30.408C178.396 29.948 182.168 30.132 183.548 28.568V32.984ZM185.296 23.968C185.296 19.092 181.156 17.804 177.016 17.804C171.45 17.804 168.23 20.426 168 25.624H169.748C169.978 21.53 172.784 19.322 177.016 19.322C182.398 19.322 183.594 22.91 183.594 23.968C183.594 27.832 183.272 28.338 175.452 28.89C171.542 29.212 166.758 30.362 166.758 35.882C166.758 40.85 170.208 42.552 174.67 42.552C179.178 42.552 182.352 40.114 183.456 37.308H183.548V38.55C183.548 40.482 183.962 42 186.722 42C187.182 42 187.642 41.908 188.148 41.816V40.344C187.596 40.436 187.182 40.482 186.86 40.482C185.296 40.482 185.296 39.01 185.296 37.63V23.968ZM192.15 18.356H190.402V42H192.15V29.074C192.334 25.532 193.07 24.06 194.818 22.266C196.934 20.196 199.51 19.736 201.35 19.966V18.218C197.072 18.034 193.208 20.518 192.288 23.6H192.15V18.356Z" fill="#093E52"/>
<rect x="143" y="48" width="2" height="3" fill="#FCFAFA"/>
<path d="M56.6435 53.34L58.002 49.863L59.313 53.34H56.6435ZM57.6695 49.217L54.943 56H55.627L56.444 53.891H59.5315L60.358 56H61.0515L58.3915 49.217H57.6695ZM64.5369 52.5325H65.1354C65.1227 52.2665 65.0689 52.0353 64.9739 51.839C64.8789 51.6427 64.7491 51.478 64.5844 51.345C64.4261 51.212 64.2392 51.1138 64.0239 51.0505C63.8149 50.9872 63.5869 50.9555 63.3399 50.9555C63.1246 50.9555 62.9061 50.9808 62.6844 51.0315C62.4691 51.0822 62.2727 51.1613 62.0954 51.269C61.9181 51.3767 61.7724 51.5192 61.6584 51.6965C61.5507 51.8738 61.4969 52.086 61.4969 52.333C61.4969 52.542 61.5317 52.7193 61.6014 52.865C61.6711 53.0043 61.7661 53.1247 61.8864 53.226C62.0131 53.321 62.1587 53.4033 62.3234 53.473C62.4881 53.5363 62.6686 53.5933 62.8649 53.644L63.6344 53.815C63.7674 53.8467 63.8972 53.8847 64.0239 53.929C64.1569 53.9733 64.2741 54.0303 64.3754 54.1C64.4767 54.1633 64.5559 54.2457 64.6129 54.347C64.6762 54.442 64.7079 54.5623 64.7079 54.708C64.7079 54.879 64.6636 55.0247 64.5749 55.145C64.4926 55.259 64.3849 55.354 64.2519 55.43C64.1189 55.506 63.9732 55.5598 63.8149 55.5915C63.6629 55.6232 63.5141 55.639 63.3684 55.639C62.9694 55.639 62.6337 55.5377 62.3614 55.335C62.0954 55.126 61.9497 54.8188 61.9244 54.4135H61.3259C61.3766 55.0152 61.5792 55.4522 61.9339 55.7245C62.2949 55.9968 62.7636 56.133 63.3399 56.133C63.5679 56.133 63.7991 56.1077 64.0334 56.057C64.2677 56.0063 64.4767 55.924 64.6604 55.81C64.8504 55.6897 65.0056 55.5377 65.1259 55.354C65.2462 55.164 65.3064 54.936 65.3064 54.67C65.3064 54.4547 65.2652 54.2678 65.1829 54.1095C65.1006 53.9512 64.9929 53.8182 64.8599 53.7105C64.7332 53.6028 64.5844 53.5173 64.4134 53.454C64.2487 53.3843 64.0809 53.3368 63.9099 53.3115L63.1119 53.131C63.0106 53.1057 62.8997 53.074 62.7794 53.036C62.6591 52.9917 62.5482 52.9378 62.4469 52.8745C62.3456 52.8112 62.2601 52.7352 62.1904 52.6465C62.1271 52.5515 62.0954 52.4375 62.0954 52.3045C62.0954 52.1462 62.1302 52.0132 62.1999 51.9055C62.2696 51.7978 62.3614 51.7123 62.4754 51.649C62.5894 51.5793 62.7129 51.5318 62.8459 51.5065C62.9852 51.4748 63.1214 51.459 63.2544 51.459C63.4254 51.459 63.5869 51.4812 63.7389 51.5255C63.8909 51.5635 64.0239 51.6268 64.1379 51.7155C64.2582 51.8042 64.3532 51.9182 64.4229 52.0575C64.4926 52.1905 64.5306 52.3488 64.5369 52.5325ZM69.1581 52.5325H69.7566C69.744 52.2665 69.6901 52.0353 69.5951 51.839C69.5001 51.6427 69.3703 51.478 69.2056 51.345C69.0473 51.212 68.8605 51.1138 68.6451 51.0505C68.4361 50.9872 68.2081 50.9555 67.9611 50.9555C67.7458 50.9555 67.5273 50.9808 67.3056 51.0315C67.0903 51.0822 66.894 51.1613 66.7166 51.269C66.5393 51.3767 66.3936 51.5192 66.2796 51.6965C66.172 51.8738 66.1181 52.086 66.1181 52.333C66.1181 52.542 66.153 52.7193 66.2226 52.865C66.2923 53.0043 66.3873 53.1247 66.5076 53.226C66.6343 53.321 66.78 53.4033 66.9446 53.473C67.1093 53.5363 67.2898 53.5933 67.4861 53.644L68.2556 53.815C68.3886 53.8467 68.5185 53.8847 68.6451 53.929C68.7781 53.9733 68.8953 54.0303 68.9966 54.1C69.098 54.1633 69.1771 54.2457 69.2341 54.347C69.2975 54.442 69.3291 54.5623 69.3291 54.708C69.3291 54.879 69.2848 55.0247 69.1961 55.145C69.1138 55.259 69.0061 55.354 68.8731 55.43C68.7401 55.506 68.5945 55.5598 68.4361 55.5915C68.2841 55.6232 68.1353 55.639 67.9896 55.639C67.5906 55.639 67.255 55.5377 66.9826 55.335C66.7166 55.126 66.571 54.8188 66.5456 54.4135H65.9471C65.9978 55.0152 66.2005 55.4522 66.5551 55.7245C66.9161 55.9968 67.3848 56.133 67.9611 56.133C68.1891 56.133 68.4203 56.1077 68.6546 56.057C68.889 56.0063 69.098 55.924 69.2816 55.81C69.4716 55.6897 69.6268 55.5377 69.7471 55.354C69.8675 55.164 69.9276 54.936 69.9276 54.67C69.9276 54.4547 69.8865 54.2678 69.8041 54.1095C69.7218 53.9512 69.6141 53.8182 69.4811 53.7105C69.3545 53.6028 69.2056 53.5173 69.0346 53.454C68.87 53.3843 68.7021 53.3368 68.5311 53.3115L67.7331 53.131C67.6318 53.1057 67.521 53.074 67.4006 53.036C67.2803 52.9917 67.1695 52.9378 67.0681 52.8745C66.9668 52.8112 66.8813 52.7352 66.8116 52.6465C66.7483 52.5515 66.7166 52.4375 66.7166 52.3045C66.7166 52.1462 66.7515 52.0132 66.8211 51.9055C66.8908 51.7978 66.9826 51.7123 67.0966 51.649C67.2106 51.5793 67.3341 51.5318 67.4671 51.5065C67.6065 51.4748 67.7426 51.459 67.8756 51.459C68.0466 51.459 68.2081 51.4812 68.3601 51.5255C68.5121 51.5635 68.6451 51.6268 68.7591 51.7155C68.8795 51.8042 68.9745 51.9182 69.0441 52.0575C69.1138 52.1905 69.1518 52.3488 69.1581 52.5325ZM74.3683 53.207H71.1953C71.2207 52.9853 71.2713 52.77 71.3473 52.561C71.4297 52.3457 71.5373 52.1588 71.6703 52.0005C71.8033 51.8358 71.9648 51.706 72.1548 51.611C72.3448 51.5097 72.5633 51.459 72.8103 51.459C73.051 51.459 73.2663 51.5097 73.4563 51.611C73.6463 51.706 73.8078 51.8358 73.9408 52.0005C74.0738 52.1588 74.1752 52.3425 74.2448 52.5515C74.3208 52.7605 74.362 52.979 74.3683 53.207ZM71.1953 53.7105H74.9668C74.9795 53.3685 74.9478 53.0328 74.8718 52.7035C74.7958 52.3678 74.6692 52.0733 74.4918 51.82C74.3208 51.5603 74.096 51.3513 73.8173 51.193C73.5387 51.0347 73.203 50.9555 72.8103 50.9555C72.424 50.9555 72.0883 51.0315 71.8033 51.1835C71.5247 51.3292 71.2967 51.5255 71.1193 51.7725C70.942 52.0132 70.809 52.2887 70.7203 52.599C70.638 52.9093 70.5968 53.226 70.5968 53.549C70.5968 53.8973 70.638 54.2298 70.7203 54.5465C70.809 54.8568 70.942 55.1323 71.1193 55.373C71.2967 55.6073 71.5247 55.7942 71.8033 55.9335C72.0883 56.0665 72.424 56.133 72.8103 56.133C73.431 56.133 73.9092 55.981 74.2448 55.677C74.5868 55.373 74.8212 54.9423 74.9478 54.385H74.3493C74.2543 54.765 74.0833 55.069 73.8363 55.297C73.5893 55.525 73.2473 55.639 72.8103 55.639C72.5253 55.639 72.2815 55.5788 72.0788 55.4585C71.8762 55.3382 71.7083 55.1862 71.5753 55.0025C71.4423 54.8188 71.3442 54.613 71.2808 54.385C71.2238 54.1507 71.1953 53.9258 71.1953 53.7105ZM78.7531 52.5325H79.3516C79.339 52.2665 79.2851 52.0353 79.1901 51.839C79.0951 51.6427 78.9653 51.478 78.8006 51.345C78.6423 51.212 78.4555 51.1138 78.2401 51.0505C78.0311 50.9872 77.8031 50.9555 77.5561 50.9555C77.3408 50.9555 77.1223 50.9808 76.9006 51.0315C76.6853 51.0822 76.489 51.1613 76.3116 51.269C76.1343 51.3767 75.9886 51.5192 75.8746 51.6965C75.767 51.8738 75.7131 52.086 75.7131 52.333C75.7131 52.542 75.748 52.7193 75.8176 52.865C75.8873 53.0043 75.9823 53.1247 76.1026 53.226C76.2293 53.321 76.375 53.4033 76.5396 53.473C76.7043 53.5363 76.8848 53.5933 77.0811 53.644L77.8506 53.815C77.9836 53.8467 78.1135 53.8847 78.2401 53.929C78.3731 53.9733 78.4903 54.0303 78.5916 54.1C78.693 54.1633 78.7721 54.2457 78.8291 54.347C78.8925 54.442 78.9241 54.5623 78.9241 54.708C78.9241 54.879 78.8798 55.0247 78.7911 55.145C78.7088 55.259 78.6011 55.354 78.4681 55.43C78.3351 55.506 78.1895 55.5598 78.0311 55.5915C77.8791 55.6232 77.7303 55.639 77.5846 55.639C77.1856 55.639 76.85 55.5377 76.5776 55.335C76.3116 55.126 76.166 54.8188 76.1406 54.4135H75.5421C75.5928 55.0152 75.7955 55.4522 76.1501 55.7245C76.5111 55.9968 76.9798 56.133 77.5561 56.133C77.7841 56.133 78.0153 56.1077 78.2496 56.057C78.484 56.0063 78.693 55.924 78.8766 55.81C79.0666 55.6897 79.2218 55.5377 79.3421 55.354C79.4625 55.164 79.5226 54.936 79.5226 54.67C79.5226 54.4547 79.4815 54.2678 79.3991 54.1095C79.3168 53.9512 79.2091 53.8182 79.0761 53.7105C78.9495 53.6028 78.8006 53.5173 78.6296 53.454C78.465 53.3843 78.2971 53.3368 78.1261 53.3115L77.3281 53.131C77.2268 53.1057 77.116 53.074 76.9956 53.036C76.8753 52.9917 76.7645 52.9378 76.6631 52.8745C76.5618 52.8112 76.4763 52.7352 76.4066 52.6465C76.3433 52.5515 76.3116 52.4375 76.3116 52.3045C76.3116 52.1462 76.3465 52.0132 76.4161 51.9055C76.4858 51.7978 76.5776 51.7123 76.6916 51.649C76.8056 51.5793 76.9291 51.5318 77.0621 51.5065C77.2015 51.4748 77.3376 51.459 77.4706 51.459C77.6416 51.459 77.8031 51.4812 77.9551 51.5255C78.1071 51.5635 78.2401 51.6268 78.3541 51.7155C78.4745 51.8042 78.5695 51.9182 78.6391 52.0575C78.7088 52.1905 78.7468 52.3488 78.7531 52.5325ZM83.3743 52.5325H83.9728C83.9602 52.2665 83.9063 52.0353 83.8113 51.839C83.7163 51.6427 83.5865 51.478 83.4218 51.345C83.2635 51.212 83.0767 51.1138 82.8613 51.0505C82.6523 50.9872 82.4243 50.9555 82.1773 50.9555C81.962 50.9555 81.7435 50.9808 81.5218 51.0315C81.3065 51.0822 81.1102 51.1613 80.9328 51.269C80.7555 51.3767 80.6098 51.5192 80.4958 51.6965C80.3882 51.8738 80.3343 52.086 80.3343 52.333C80.3343 52.542 80.3692 52.7193 80.4388 52.865C80.5085 53.0043 80.6035 53.1247 80.7238 53.226C80.8505 53.321 80.9962 53.4033 81.1608 53.473C81.3255 53.5363 81.506 53.5933 81.7023 53.644L82.4718 53.815C82.6048 53.8467 82.7347 53.8847 82.8613 53.929C82.9943 53.9733 83.1115 54.0303 83.2128 54.1C83.3142 54.1633 83.3933 54.2457 83.4503 54.347C83.5137 54.442 83.5453 54.5623 83.5453 54.708C83.5453 54.879 83.501 55.0247 83.4123 55.145C83.33 55.259 83.2223 55.354 83.0893 55.43C82.9563 55.506 82.8107 55.5598 82.6523 55.5915C82.5003 55.6232 82.3515 55.639 82.2058 55.639C81.8068 55.639 81.4712 55.5377 81.1988 55.335C80.9328 55.126 80.7872 54.8188 80.7618 54.4135H80.1633C80.214 55.0152 80.4167 55.4522 80.7713 55.7245C81.1323 55.9968 81.601 56.133 82.1773 56.133C82.4053 56.133 82.6365 56.1077 82.8708 56.057C83.1052 56.0063 83.3142 55.924 83.4978 55.81C83.6878 55.6897 83.843 55.5377 83.9633 55.354C84.0837 55.164 84.1438 54.936 84.1438 54.67C84.1438 54.4547 84.1027 54.2678 84.0203 54.1095C83.938 53.9512 83.8303 53.8182 83.6973 53.7105C83.5707 53.6028 83.4218 53.5173 83.2508 53.454C83.0862 53.3843 82.9183 53.3368 82.7473 53.3115L81.9493 53.131C81.848 53.1057 81.7372 53.074 81.6168 53.036C81.4965 52.9917 81.3857 52.9378 81.2843 52.8745C81.183 52.8112 81.0975 52.7352 81.0278 52.6465C80.9645 52.5515 80.9328 52.4375 80.9328 52.3045C80.9328 52.1462 80.9677 52.0132 81.0373 51.9055C81.107 51.7978 81.1988 51.7123 81.3128 51.649C81.4268 51.5793 81.5503 51.5318 81.6833 51.5065C81.8227 51.4748 81.9588 51.459 82.0918 51.459C82.2628 51.459 82.4243 51.4812 82.5763 51.5255C82.7283 51.5635 82.8613 51.6268 82.9753 51.7155C83.0957 51.8042 83.1907 51.9182 83.2603 52.0575C83.33 52.1905 83.368 52.3488 83.3743 52.5325ZM87.1311 51.459C87.4161 51.459 87.6662 51.5192 87.8816 51.6395C88.0969 51.7598 88.2742 51.9182 88.4136 52.1145C88.5592 52.3108 88.6669 52.5357 88.7366 52.789C88.8126 53.036 88.8506 53.2893 88.8506 53.549C88.8506 53.8087 88.8126 54.0652 88.7366 54.3185C88.6669 54.5655 88.5592 54.7872 88.4136 54.9835C88.2742 55.1798 88.0969 55.3382 87.8816 55.4585C87.6662 55.5788 87.4161 55.639 87.1311 55.639C86.8461 55.639 86.5959 55.5788 86.3806 55.4585C86.1652 55.3382 85.9847 55.1798 85.8391 54.9835C85.6997 54.7872 85.5921 54.5655 85.5161 54.3185C85.4464 54.0652 85.4116 53.8087 85.4116 53.549C85.4116 53.2893 85.4464 53.036 85.5161 52.789C85.5921 52.5357 85.6997 52.3108 85.8391 52.1145C85.9847 51.9182 86.1652 51.7598 86.3806 51.6395C86.5959 51.5192 86.8461 51.459 87.1311 51.459ZM87.1311 50.9555C86.7574 50.9555 86.4249 51.0252 86.1336 51.1645C85.8486 51.3038 85.6079 51.4907 85.4116 51.725C85.2152 51.9593 85.0664 52.2348 84.9651 52.5515C84.8637 52.8618 84.8131 53.1943 84.8131 53.549C84.8131 53.9037 84.8637 54.2393 84.9651 54.556C85.0664 54.8663 85.2152 55.1387 85.4116 55.373C85.6079 55.6073 85.8486 55.7942 86.1336 55.9335C86.4249 56.0665 86.7574 56.133 87.1311 56.133C87.5047 56.133 87.8341 56.0665 88.1191 55.9335C88.4104 55.7942 88.6542 55.6073 88.8506 55.373C89.0469 55.1387 89.1957 54.8663 89.2971 54.556C89.3984 54.2393 89.4491 53.9037 89.4491 53.549C89.4491 53.1943 89.3984 52.8618 89.2971 52.5515C89.1957 52.2348 89.0469 51.9593 88.8506 51.725C88.6542 51.4907 88.4104 51.3038 88.1191 51.1645C87.8341 51.0252 87.5047 50.9555 87.1311 50.9555ZM90.3864 51.098V56H90.9849V53.3875C90.9849 53.1278 91.0292 52.8903 91.1179 52.675C91.2066 52.4533 91.3301 52.2633 91.4884 52.105C91.6531 51.9467 91.8462 51.8263 92.0679 51.744C92.2896 51.6553 92.5366 51.6173 92.8089 51.63V51.0315C92.3656 51.0125 91.9824 51.1107 91.6594 51.326C91.3427 51.5413 91.1084 51.8485 90.9564 52.2475H90.9374V51.098H90.3864ZM93.44 49.217V50.1765H94.0385V49.217H93.44ZM93.44 51.098V56H94.0385V51.098H93.44ZM95.1744 52.599H95.7729C95.7856 52.2 95.9122 51.9118 96.1529 51.7345C96.3936 51.5508 96.7039 51.459 97.0839 51.459C97.2612 51.459 97.4259 51.4748 97.5779 51.5065C97.7362 51.5318 97.8724 51.5825 97.9864 51.6585C98.1067 51.7345 98.1986 51.839 98.2619 51.972C98.3316 52.0987 98.3664 52.2633 98.3664 52.466C98.3664 52.599 98.3474 52.7067 98.3094 52.789C98.2777 52.8713 98.2302 52.9378 98.1669 52.9885C98.1036 53.0328 98.0244 53.0645 97.9294 53.0835C97.8344 53.1025 97.7236 53.1183 97.5969 53.131C97.2739 53.169 96.9541 53.2102 96.6374 53.2545C96.3271 53.2925 96.0452 53.3622 95.7919 53.4635C95.5449 53.5648 95.3454 53.7137 95.1934 53.91C95.0414 54.1 94.9654 54.366 94.9654 54.708C94.9654 54.955 95.0066 55.1703 95.0889 55.354C95.1776 55.5313 95.2947 55.6802 95.4404 55.8005C95.5924 55.9145 95.7666 55.9968 95.9629 56.0475C96.1656 56.1045 96.3809 56.133 96.6089 56.133C96.8496 56.133 97.0554 56.1108 97.2264 56.0665C97.4037 56.0222 97.5589 55.9588 97.6919 55.8765C97.8312 55.7942 97.9547 55.6928 98.0624 55.5725C98.1764 55.4458 98.2872 55.3033 98.3949 55.145H98.4139C98.4139 55.2717 98.4202 55.3888 98.4329 55.4965C98.4519 55.5978 98.4867 55.6865 98.5374 55.7625C98.5881 55.8385 98.6577 55.8987 98.7464 55.943C98.8414 55.981 98.9649 56 99.1169 56C99.1992 56 99.2657 55.9968 99.3164 55.9905C99.3734 55.9842 99.4367 55.9747 99.5064 55.962V55.4585C99.4494 55.4838 99.3861 55.4965 99.3164 55.4965C99.0821 55.4965 98.9649 55.3762 98.9649 55.1355V52.5325C98.9649 52.2032 98.9111 51.9372 98.8034 51.7345C98.6957 51.5255 98.5564 51.364 98.3854 51.25C98.2144 51.136 98.0212 51.06 97.8059 51.022C97.5906 50.9777 97.3752 50.9555 97.1599 50.9555C96.8749 50.9555 96.6152 50.9872 96.3809 51.0505C96.1466 51.1138 95.9407 51.212 95.7634 51.345C95.5924 51.478 95.4562 51.649 95.3549 51.858C95.2536 52.067 95.1934 52.314 95.1744 52.599ZM98.3664 53.321V54.1C98.3664 54.3407 98.3189 54.556 98.2239 54.746C98.1352 54.936 98.0117 55.0975 97.8534 55.2305C97.7014 55.3635 97.5209 55.4648 97.3119 55.5345C97.1029 55.6042 96.8844 55.639 96.6564 55.639C96.5171 55.639 96.3809 55.6168 96.2479 55.5725C96.1149 55.5282 95.9977 55.4648 95.8964 55.3825C95.7951 55.2938 95.7127 55.1925 95.6494 55.0785C95.5924 54.9582 95.5639 54.822 95.5639 54.67C95.5639 54.4293 95.6336 54.2457 95.7729 54.119C95.9186 53.986 96.1022 53.8847 96.3239 53.815C96.5456 53.7453 96.7894 53.6947 97.0554 53.663C97.3277 53.625 97.5906 53.5838 97.8439 53.5395C97.9262 53.5268 98.0212 53.5047 98.1289 53.473C98.2366 53.4413 98.3094 53.3907 98.3474 53.321H98.3664ZM106.421 53.207H103.248C103.274 52.9853 103.324 52.77 103.4 52.561C103.483 52.3457 103.59 52.1588 103.723 52.0005C103.856 51.8358 104.018 51.706 104.208 51.611C104.398 51.5097 104.616 51.459 104.863 51.459C105.104 51.459 105.319 51.5097 105.509 51.611C105.699 51.706 105.861 51.8358 105.994 52.0005C106.127 52.1588 106.228 52.3425 106.298 52.5515C106.374 52.7605 106.415 52.979 106.421 53.207ZM103.248 53.7105H107.02C107.032 53.3685 107.001 53.0328 106.925 52.7035C106.849 52.3678 106.722 52.0733 106.545 51.82C106.374 51.5603 106.149 51.3513 105.87 51.193C105.592 51.0347 105.256 50.9555 104.863 50.9555C104.477 50.9555 104.141 51.0315 103.856 51.1835C103.578 51.3292 103.35 51.5255 103.172 51.7725C102.995 52.0132 102.862 52.2887 102.773 52.599C102.691 52.9093 102.65 53.226 102.65 53.549C102.65 53.8973 102.691 54.2298 102.773 54.5465C102.862 54.8568 102.995 55.1323 103.172 55.373C103.35 55.6073 103.578 55.7942 103.856 55.9335C104.141 56.0665 104.477 56.133 104.863 56.133C105.484 56.133 105.962 55.981 106.298 55.677C106.64 55.373 106.874 54.9423 107.001 54.385H106.402C106.307 54.765 106.136 55.069 105.889 55.297C105.642 55.525 105.3 55.639 104.863 55.639C104.578 55.639 104.334 55.5788 104.132 55.4585C103.929 55.3382 103.761 55.1862 103.628 55.0025C103.495 54.8188 103.397 54.613 103.334 54.385C103.277 54.1507 103.248 53.9258 103.248 53.7105ZM107.87 51.098V56H108.469V53.264C108.469 53.0043 108.497 52.7668 108.554 52.5515C108.611 52.3298 108.697 52.1398 108.811 51.9815C108.931 51.8168 109.083 51.6902 109.267 51.6015C109.457 51.5065 109.679 51.459 109.932 51.459C110.122 51.459 110.283 51.4907 110.416 51.554C110.549 51.6173 110.654 51.706 110.73 51.82C110.812 51.9277 110.869 52.0575 110.901 52.2095C110.939 52.3552 110.958 52.5103 110.958 52.675V56H111.556V53.226C111.556 52.998 111.575 52.7795 111.613 52.5705C111.658 52.3552 111.731 52.1652 111.832 52.0005C111.933 51.8358 112.069 51.706 112.24 51.611C112.411 51.5097 112.627 51.459 112.886 51.459C113.317 51.459 113.618 51.5667 113.789 51.782C113.96 51.991 114.045 52.2982 114.045 52.7035V56H114.644V52.675C114.644 51.5287 114.102 50.9555 113.019 50.9555C112.696 50.9555 112.392 51.0347 112.107 51.193C111.822 51.3513 111.607 51.592 111.461 51.915C111.373 51.592 111.195 51.3513 110.929 51.193C110.67 51.0347 110.378 50.9555 110.055 50.9555C109.656 50.9555 109.327 51.041 109.067 51.212C108.814 51.383 108.608 51.6205 108.45 51.9245H108.421V51.098H107.87ZM124.432 56V52.5515H121.554V53.1025H123.862C123.868 53.4635 123.821 53.796 123.72 54.1C123.618 54.404 123.466 54.6668 123.264 54.8885C123.061 55.1102 122.811 55.2843 122.513 55.411C122.222 55.5313 121.889 55.5915 121.516 55.5915C121.066 55.5915 120.68 55.506 120.357 55.335C120.034 55.164 119.768 54.9392 119.559 54.6605C119.356 54.3755 119.204 54.0557 119.103 53.701C119.008 53.34 118.96 52.9758 118.96 52.6085C118.96 52.2348 119.008 51.8707 119.103 51.516C119.204 51.1613 119.356 50.8447 119.559 50.566C119.768 50.281 120.034 50.053 120.357 49.882C120.68 49.711 121.066 49.6255 121.516 49.6255C121.839 49.6255 122.13 49.6793 122.39 49.787C122.649 49.8883 122.871 50.0213 123.055 50.186C123.245 50.3507 123.393 50.5343 123.501 50.737C123.615 50.9333 123.682 51.1297 123.701 51.326H124.347C124.283 50.9523 124.166 50.6262 123.995 50.3475C123.824 50.0688 123.615 49.8345 123.368 49.6445C123.121 49.4545 122.839 49.312 122.523 49.217C122.206 49.122 121.87 49.0745 121.516 49.0745C120.984 49.0745 120.515 49.1727 120.11 49.369C119.711 49.559 119.378 49.8187 119.112 50.148C118.846 50.471 118.647 50.8447 118.514 51.269C118.381 51.6933 118.314 52.1398 118.314 52.6085C118.314 53.0772 118.381 53.5237 118.514 53.948C118.647 54.3723 118.846 54.746 119.112 55.069C119.378 55.392 119.711 55.6517 120.11 55.848C120.515 56.038 120.984 56.133 121.516 56.133C121.763 56.133 122 56.1077 122.228 56.057C122.462 56.0063 122.681 55.9272 122.884 55.8195C123.086 55.7055 123.27 55.563 123.435 55.392C123.606 55.2147 123.748 55.0057 123.862 54.765H123.881L123.967 56H124.432ZM129.137 53.207H125.964C125.989 52.9853 126.04 52.77 126.116 52.561C126.198 52.3457 126.306 52.1588 126.439 52.0005C126.572 51.8358 126.733 51.706 126.923 51.611C127.113 51.5097 127.332 51.459 127.579 51.459C127.819 51.459 128.035 51.5097 128.225 51.611C128.415 51.706 128.576 51.8358 128.709 52.0005C128.842 52.1588 128.943 52.3425 129.013 52.5515C129.089 52.7605 129.13 52.979 129.137 53.207ZM125.964 53.7105H129.735C129.748 53.3685 129.716 53.0328 129.64 52.7035C129.564 52.3678 129.437 52.0733 129.26 51.82C129.089 51.5603 128.864 51.3513 128.586 51.193C128.307 51.0347 127.971 50.9555 127.579 50.9555C127.192 50.9555 126.857 51.0315 126.572 51.1835C126.293 51.3292 126.065 51.5255 125.888 51.7725C125.71 52.0132 125.577 52.2887 125.489 52.599C125.406 52.9093 125.365 53.226 125.365 53.549C125.365 53.8973 125.406 54.2298 125.489 54.5465C125.577 54.8568 125.71 55.1323 125.888 55.373C126.065 55.6073 126.293 55.7942 126.572 55.9335C126.857 56.0665 127.192 56.133 127.579 56.133C128.199 56.133 128.677 55.981 129.013 55.677C129.355 55.373 129.589 54.9423 129.716 54.385H129.118C129.023 54.765 128.852 55.069 128.605 55.297C128.358 55.525 128.016 55.639 127.579 55.639C127.294 55.639 127.05 55.5788 126.847 55.4585C126.644 55.3382 126.477 55.1862 126.344 55.0025C126.211 54.8188 126.112 54.613 126.049 54.385C125.992 54.1507 125.964 53.9258 125.964 53.7105ZM133.521 52.5325H134.12C134.107 52.2665 134.053 52.0353 133.958 51.839C133.863 51.6427 133.734 51.478 133.569 51.345C133.411 51.212 133.224 51.1138 133.008 51.0505C132.799 50.9872 132.571 50.9555 132.324 50.9555C132.109 50.9555 131.891 50.9808 131.669 51.0315C131.454 51.0822 131.257 51.1613 131.08 51.269C130.903 51.3767 130.757 51.5192 130.643 51.6965C130.535 51.8738 130.481 52.086 130.481 52.333C130.481 52.542 130.516 52.7193 130.586 52.865C130.656 53.0043 130.751 53.1247 130.871 53.226C130.998 53.321 131.143 53.4033 131.308 53.473C131.473 53.5363 131.653 53.5933 131.849 53.644L132.619 53.815C132.752 53.8467 132.882 53.8847 133.008 53.929C133.141 53.9733 133.259 54.0303 133.36 54.1C133.461 54.1633 133.54 54.2457 133.597 54.347C133.661 54.442 133.692 54.5623 133.692 54.708C133.692 54.879 133.648 55.0247 133.559 55.145C133.477 55.259 133.369 55.354 133.236 55.43C133.103 55.506 132.958 55.5598 132.799 55.5915C132.647 55.6232 132.499 55.639 132.353 55.639C131.954 55.639 131.618 55.5377 131.346 55.335C131.08 55.126 130.934 54.8188 130.909 54.4135H130.31C130.361 55.0152 130.564 55.4522 130.918 55.7245C131.279 55.9968 131.748 56.133 132.324 56.133C132.552 56.133 132.784 56.1077 133.018 56.057C133.252 56.0063 133.461 55.924 133.645 55.81C133.835 55.6897 133.99 55.5377 134.11 55.354C134.231 55.164 134.291 54.936 134.291 54.67C134.291 54.4547 134.25 54.2678 134.167 54.1095C134.085 53.9512 133.977 53.8182 133.844 53.7105C133.718 53.6028 133.569 53.5173 133.398 53.454C133.233 53.3843 133.065 53.3368 132.894 53.3115L132.096 53.131C131.995 53.1057 131.884 53.074 131.764 53.036C131.644 52.9917 131.533 52.9378 131.431 52.8745C131.33 52.8112 131.245 52.7352 131.175 52.6465C131.112 52.5515 131.08 52.4375 131.08 52.3045C131.08 52.1462 131.115 52.0132 131.184 51.9055C131.254 51.7978 131.346 51.7123 131.46 51.649C131.574 51.5793 131.697 51.5318 131.83 51.5065C131.97 51.4748 132.106 51.459 132.239 51.459C132.41 51.459 132.571 51.4812 132.723 51.5255C132.875 51.5635 133.008 51.6268 133.122 51.7155C133.243 51.8042 133.338 51.9182 133.407 52.0575C133.477 52.1905 133.515 52.3488 133.521 52.5325ZM136.157 51.098V49.6255H135.559V51.098H134.704V51.6015H135.559V54.955C135.552 55.373 135.628 55.6612 135.787 55.8195C135.945 55.9715 136.224 56.0475 136.623 56.0475C136.711 56.0475 136.8 56.0443 136.889 56.038C136.977 56.0317 137.066 56.0285 137.155 56.0285V55.525C136.984 55.544 136.813 55.5535 136.642 55.5535C136.426 55.5408 136.29 55.4807 136.233 55.373C136.182 55.259 136.157 55.1038 136.157 54.9075V51.6015H137.155V51.098H136.157ZM141.448 49.274H141.087C141.049 49.4007 140.992 49.5083 140.916 49.597C140.846 49.6857 140.738 49.73 140.593 49.73C140.504 49.73 140.412 49.7078 140.317 49.6635C140.228 49.6192 140.13 49.5717 140.023 49.521C139.921 49.4703 139.81 49.4228 139.69 49.3785C139.57 49.3342 139.443 49.312 139.31 49.312C139.19 49.312 139.079 49.3405 138.978 49.3975C138.876 49.4482 138.791 49.5178 138.721 49.6065C138.651 49.6888 138.594 49.7838 138.55 49.8915C138.506 49.9992 138.477 50.11 138.465 50.224H138.835C138.835 50.0657 138.883 49.9453 138.978 49.863C139.073 49.7807 139.193 49.7395 139.339 49.7395C139.421 49.7395 139.51 49.7617 139.605 49.806C139.7 49.8503 139.801 49.901 139.909 49.958C140.016 50.015 140.13 50.0657 140.251 50.11C140.371 50.1543 140.494 50.1765 140.621 50.1765C140.748 50.1765 140.859 50.1512 140.954 50.1005C141.049 50.0435 141.128 49.9738 141.191 49.8915C141.261 49.8028 141.315 49.7047 141.353 49.597C141.397 49.4893 141.429 49.3817 141.448 49.274ZM138.009 52.599H138.607C138.62 52.2 138.746 51.9118 138.987 51.7345C139.228 51.5508 139.538 51.459 139.918 51.459C140.095 51.459 140.26 51.4748 140.412 51.5065C140.57 51.5318 140.707 51.5825 140.821 51.6585C140.941 51.7345 141.033 51.839 141.096 51.972C141.166 52.0987 141.201 52.2633 141.201 52.466C141.201 52.599 141.182 52.7067 141.144 52.789C141.112 52.8713 141.064 52.9378 141.001 52.9885C140.938 53.0328 140.859 53.0645 140.764 53.0835C140.669 53.1025 140.558 53.1183 140.431 53.131C140.108 53.169 139.788 53.2102 139.472 53.2545C139.161 53.2925 138.879 53.3622 138.626 53.4635C138.379 53.5648 138.18 53.7137 138.028 53.91C137.876 54.1 137.8 54.366 137.8 54.708C137.8 54.955 137.841 55.1703 137.923 55.354C138.012 55.5313 138.129 55.6802 138.275 55.8005C138.427 55.9145 138.601 55.9968 138.797 56.0475C139 56.1045 139.215 56.133 139.443 56.133C139.684 56.133 139.89 56.1108 140.061 56.0665C140.238 56.0222 140.393 55.9588 140.526 55.8765C140.665 55.7942 140.789 55.6928 140.897 55.5725C141.011 55.4458 141.121 55.3033 141.229 55.145H141.248C141.248 55.2717 141.254 55.3888 141.267 55.4965C141.286 55.5978 141.321 55.6865 141.372 55.7625C141.422 55.8385 141.492 55.8987 141.581 55.943C141.676 55.981 141.799 56 141.951 56C142.033 56 142.1 55.9968 142.151 55.9905C142.208 55.9842 142.271 55.9747 142.341 55.962V55.4585C142.284 55.4838 142.22 55.4965 142.151 55.4965C141.916 55.4965 141.799 55.3762 141.799 55.1355V52.5325C141.799 52.2032 141.745 51.9372 141.638 51.7345C141.53 51.5255 141.391 51.364 141.22 51.25C141.049 51.136 140.855 51.06 140.64 51.022C140.425 50.9777 140.209 50.9555 139.994 50.9555C139.709 50.9555 139.449 50.9872 139.215 51.0505C138.981 51.1138 138.775 51.212 138.598 51.345C138.427 51.478 138.29 51.649 138.189 51.858C138.088 52.067 138.028 52.314 138.009 52.599ZM141.201 53.321V54.1C141.201 54.3407 141.153 54.556 141.058 54.746C140.969 54.936 140.846 55.0975 140.688 55.2305C140.536 55.3635 140.355 55.4648 140.146 55.5345C139.937 55.6042 139.719 55.639 139.491 55.639C139.351 55.639 139.215 55.6168 139.082 55.5725C138.949 55.5282 138.832 55.4648 138.731 55.3825C138.629 55.2938 138.547 55.1925 138.484 55.0785C138.427 54.9582 138.398 54.822 138.398 54.67C138.398 54.4293 138.468 54.2457 138.607 54.119C138.753 53.986 138.936 53.8847 139.158 53.815C139.38 53.7453 139.624 53.6947 139.89 53.663C140.162 53.625 140.425 53.5838 140.678 53.5395C140.76 53.5268 140.855 53.5047 140.963 53.473C141.071 53.4413 141.144 53.3907 141.182 53.321H141.201ZM145.11 51.459C145.395 51.459 145.646 51.5192 145.861 51.6395C146.076 51.7598 146.254 51.9182 146.393 52.1145C146.539 52.3108 146.646 52.5357 146.716 52.789C146.792 53.036 146.83 53.2893 146.83 53.549C146.83 53.8087 146.792 54.0652 146.716 54.3185C146.646 54.5655 146.539 54.7872 146.393 54.9835C146.254 55.1798 146.076 55.3382 145.861 55.4585C145.646 55.5788 145.395 55.639 145.11 55.639C144.825 55.639 144.575 55.5788 144.36 55.4585C144.145 55.3382 143.964 55.1798 143.818 54.9835C143.679 54.7872 143.571 54.5655 143.495 54.3185C143.426 54.0652 143.391 53.8087 143.391 53.549C143.391 53.2893 143.426 53.036 143.495 52.789C143.571 52.5357 143.679 52.3108 143.818 52.1145C143.964 51.9182 144.145 51.7598 144.36 51.6395C144.575 51.5192 144.825 51.459 145.11 51.459ZM145.11 50.9555C144.737 50.9555 144.404 51.0252 144.113 51.1645C143.828 51.3038 143.587 51.4907 143.391 51.725C143.195 51.9593 143.046 52.2348 142.944 52.5515C142.843 52.8618 142.792 53.1943 142.792 53.549C142.792 53.9037 142.843 54.2393 142.944 54.556C143.046 54.8663 143.195 55.1387 143.391 55.373C143.587 55.6073 143.828 55.7942 144.113 55.9335C144.404 56.0665 144.737 56.133 145.11 56.133C145.484 56.133 145.813 56.0665 146.098 55.9335C146.39 55.7942 146.634 55.6073 146.83 55.373C147.026 55.1387 147.175 54.8663 147.276 54.556C147.378 54.2393 147.428 53.9037 147.428 53.549C147.428 53.1943 147.378 52.8618 147.276 52.5515C147.175 52.2348 147.026 51.9593 146.83 51.725C146.634 51.4907 146.39 51.3038 146.098 51.1645C145.813 51.0252 145.484 50.9555 145.11 50.9555ZM155.37 56V49.217H154.772V52.029H154.753C154.689 51.8517 154.598 51.6965 154.477 51.5635C154.363 51.4305 154.23 51.3197 154.078 51.231C153.926 51.136 153.762 51.0663 153.584 51.022C153.413 50.9777 153.236 50.9555 153.052 50.9555C152.679 50.9555 152.352 51.0252 152.074 51.1645C151.801 51.3038 151.573 51.4938 151.39 51.7345C151.206 51.9688 151.07 52.2443 150.981 52.561C150.893 52.8713 150.848 53.2007 150.848 53.549C150.848 53.8973 150.893 54.2298 150.981 54.5465C151.07 54.8568 151.206 55.1323 151.39 55.373C151.573 55.6073 151.801 55.7942 152.074 55.9335C152.352 56.0665 152.679 56.133 153.052 56.133C153.23 56.133 153.407 56.1077 153.584 56.057C153.768 56.0063 153.939 55.9367 154.097 55.848C154.256 55.753 154.395 55.639 154.515 55.506C154.642 55.373 154.737 55.2273 154.8 55.069H154.819V56H155.37ZM151.447 53.549C151.447 53.2957 151.475 53.0455 151.532 52.7985C151.596 52.5452 151.691 52.3203 151.817 52.124C151.95 51.9277 152.118 51.7693 152.321 51.649C152.523 51.5223 152.767 51.459 153.052 51.459C153.369 51.459 153.635 51.5223 153.85 51.649C154.072 51.7693 154.249 51.9277 154.382 52.124C154.522 52.3203 154.62 52.5452 154.677 52.7985C154.74 53.0455 154.772 53.2957 154.772 53.549C154.772 53.8023 154.74 54.0557 154.677 54.309C154.62 54.556 154.522 54.7777 154.382 54.974C154.249 55.1703 154.072 55.3318 153.85 55.4585C153.635 55.5788 153.369 55.639 153.052 55.639C152.767 55.639 152.523 55.5788 152.321 55.4585C152.118 55.3318 151.95 55.1703 151.817 54.974C151.691 54.7777 151.596 54.556 151.532 54.309C151.475 54.0557 151.447 53.8023 151.447 53.549ZM156.503 52.599H157.101C157.114 52.2 157.241 51.9118 157.481 51.7345C157.722 51.5508 158.032 51.459 158.412 51.459C158.59 51.459 158.754 51.4748 158.906 51.5065C159.065 51.5318 159.201 51.5825 159.315 51.6585C159.435 51.7345 159.527 51.839 159.59 51.972C159.66 52.0987 159.695 52.2633 159.695 52.466C159.695 52.599 159.676 52.7067 159.638 52.789C159.606 52.8713 159.559 52.9378 159.495 52.9885C159.432 53.0328 159.353 53.0645 159.258 53.0835C159.163 53.1025 159.052 53.1183 158.925 53.131C158.602 53.169 158.282 53.2102 157.966 53.2545C157.655 53.2925 157.374 53.3622 157.12 53.4635C156.873 53.5648 156.674 53.7137 156.522 53.91C156.37 54.1 156.294 54.366 156.294 54.708C156.294 54.955 156.335 55.1703 156.417 55.354C156.506 55.5313 156.623 55.6802 156.769 55.8005C156.921 55.9145 157.095 55.9968 157.291 56.0475C157.494 56.1045 157.709 56.133 157.937 56.133C158.178 56.133 158.384 56.1108 158.555 56.0665C158.732 56.0222 158.887 55.9588 159.02 55.8765C159.16 55.7942 159.283 55.6928 159.391 55.5725C159.505 55.4458 159.616 55.3033 159.723 55.145H159.742C159.742 55.2717 159.749 55.3888 159.761 55.4965C159.78 55.5978 159.815 55.6865 159.866 55.7625C159.916 55.8385 159.986 55.8987 160.075 55.943C160.17 55.981 160.293 56 160.445 56C160.528 56 160.594 55.9968 160.645 55.9905C160.702 55.9842 160.765 55.9747 160.835 55.962V55.4585C160.778 55.4838 160.714 55.4965 160.645 55.4965C160.41 55.4965 160.293 55.3762 160.293 55.1355V52.5325C160.293 52.2032 160.239 51.9372 160.132 51.7345C160.024 51.5255 159.885 51.364 159.714 51.25C159.543 51.136 159.35 51.06 159.134 51.022C158.919 50.9777 158.704 50.9555 158.488 50.9555C158.203 50.9555 157.944 50.9872 157.709 51.0505C157.475 51.1138 157.269 51.212 157.092 51.345C156.921 51.478 156.785 51.649 156.683 51.858C156.582 52.067 156.522 52.314 156.503 52.599ZM159.695 53.321V54.1C159.695 54.3407 159.647 54.556 159.552 54.746C159.464 54.936 159.34 55.0975 159.182 55.2305C159.03 55.3635 158.849 55.4648 158.64 55.5345C158.431 55.6042 158.213 55.639 157.985 55.639C157.845 55.639 157.709 55.6168 157.576 55.5725C157.443 55.5282 157.326 55.4648 157.225 55.3825C157.123 55.2938 157.041 55.1925 156.978 55.0785C156.921 54.9582 156.892 54.822 156.892 54.67C156.892 54.4293 156.962 54.2457 157.101 54.119C157.247 53.986 157.431 53.8847 157.652 53.815C157.874 53.7453 158.118 53.6947 158.384 53.663C158.656 53.625 158.919 53.5838 159.172 53.5395C159.255 53.5268 159.35 53.5047 159.457 53.473C159.565 53.4413 159.638 53.3907 159.676 53.321H159.695ZM164.387 49.217V56H165.033V49.217H164.387ZM166.369 51.098V56H166.968V53.1405C166.974 52.8998 167.012 52.6782 167.082 52.4755C167.158 52.2665 167.259 52.0892 167.386 51.9435C167.519 51.7915 167.677 51.6743 167.861 51.592C168.051 51.5033 168.266 51.459 168.507 51.459C168.747 51.459 168.947 51.497 169.105 51.573C169.27 51.649 169.4 51.7535 169.495 51.8865C169.59 52.0195 169.656 52.1778 169.694 52.3615C169.732 52.5388 169.751 52.732 169.751 52.941V56H170.35V52.846C170.35 52.5547 170.321 52.2918 170.264 52.0575C170.207 51.8232 170.109 51.6268 169.97 51.4685C169.83 51.3038 169.643 51.1772 169.409 51.0885C169.181 50.9998 168.896 50.9555 168.554 50.9555C168.206 50.9555 167.886 51.0473 167.595 51.231C167.303 51.4083 167.101 51.6458 166.987 51.9435H166.968V51.098H166.369ZM173.6 51.459C173.885 51.459 174.135 51.5192 174.35 51.6395C174.565 51.7598 174.743 51.9182 174.882 52.1145C175.028 52.3108 175.135 52.5357 175.205 52.789C175.281 53.036 175.319 53.2893 175.319 53.549C175.319 53.8087 175.281 54.0652 175.205 54.3185C175.135 54.5655 175.028 54.7872 174.882 54.9835C174.743 55.1798 174.565 55.3382 174.35 55.4585C174.135 55.5788 173.885 55.639 173.6 55.639C173.315 55.639 173.064 55.5788 172.849 55.4585C172.634 55.3382 172.453 55.1798 172.308 54.9835C172.168 54.7872 172.061 54.5655 171.985 54.3185C171.915 54.0652 171.88 53.8087 171.88 53.549C171.88 53.2893 171.915 53.036 171.985 52.789C172.061 52.5357 172.168 52.3108 172.308 52.1145C172.453 51.9182 172.634 51.7598 172.849 51.6395C173.064 51.5192 173.315 51.459 173.6 51.459ZM173.6 50.9555C173.226 50.9555 172.893 51.0252 172.602 51.1645C172.317 51.3038 172.076 51.4907 171.88 51.725C171.684 51.9593 171.535 52.2348 171.434 52.5515C171.332 52.8618 171.282 53.1943 171.282 53.549C171.282 53.9037 171.332 54.2393 171.434 54.556C171.535 54.8663 171.684 55.1387 171.88 55.373C172.076 55.6073 172.317 55.7942 172.602 55.9335C172.893 56.0665 173.226 56.133 173.6 56.133C173.973 56.133 174.303 56.0665 174.588 55.9335C174.879 55.7942 175.123 55.6073 175.319 55.373C175.515 55.1387 175.664 54.8663 175.766 54.556C175.867 54.2393 175.918 53.9037 175.918 53.549C175.918 53.1943 175.867 52.8618 175.766 52.5515C175.664 52.2348 175.515 51.9593 175.319 51.725C175.123 51.4907 174.879 51.3038 174.588 51.1645C174.303 51.0252 173.973 50.9555 173.6 50.9555ZM176.304 51.098L178.194 56H178.831L180.664 51.098H180.047L178.527 55.4015H178.508L176.969 51.098H176.304ZM181.243 52.599H181.841C181.854 52.2 181.981 51.9118 182.221 51.7345C182.462 51.5508 182.772 51.459 183.152 51.459C183.33 51.459 183.494 51.4748 183.646 51.5065C183.805 51.5318 183.941 51.5825 184.055 51.6585C184.175 51.7345 184.267 51.839 184.33 51.972C184.4 52.0987 184.435 52.2633 184.435 52.466C184.435 52.599 184.416 52.7067 184.378 52.789C184.346 52.8713 184.299 52.9378 184.235 52.9885C184.172 53.0328 184.093 53.0645 183.998 53.0835C183.903 53.1025 183.792 53.1183 183.665 53.131C183.342 53.169 183.023 53.2102 182.706 53.2545C182.396 53.2925 182.114 53.3622 181.86 53.4635C181.613 53.5648 181.414 53.7137 181.262 53.91C181.11 54.1 181.034 54.366 181.034 54.708C181.034 54.955 181.075 55.1703 181.157 55.354C181.246 55.5313 181.363 55.6802 181.509 55.8005C181.661 55.9145 181.835 55.9968 182.031 56.0475C182.234 56.1045 182.449 56.133 182.677 56.133C182.918 56.133 183.124 56.1108 183.295 56.0665C183.472 56.0222 183.627 55.9588 183.76 55.8765C183.9 55.7942 184.023 55.6928 184.131 55.5725C184.245 55.4458 184.356 55.3033 184.463 55.145H184.482C184.482 55.2717 184.489 55.3888 184.501 55.4965C184.52 55.5978 184.555 55.6865 184.606 55.7625C184.657 55.8385 184.726 55.8987 184.815 55.943C184.91 55.981 185.033 56 185.185 56C185.268 56 185.334 55.9968 185.385 55.9905C185.442 55.9842 185.505 55.9747 185.575 55.962V55.4585C185.518 55.4838 185.455 55.4965 185.385 55.4965C185.151 55.4965 185.033 55.3762 185.033 55.1355V52.5325C185.033 52.2032 184.98 51.9372 184.872 51.7345C184.764 51.5255 184.625 51.364 184.454 51.25C184.283 51.136 184.09 51.06 183.874 51.022C183.659 50.9777 183.444 50.9555 183.228 50.9555C182.943 50.9555 182.684 50.9872 182.449 51.0505C182.215 51.1138 182.009 51.212 181.832 51.345C181.661 51.478 181.525 51.649 181.423 51.858C181.322 52.067 181.262 52.314 181.243 52.599ZM184.435 53.321V54.1C184.435 54.3407 184.387 54.556 184.292 54.746C184.204 54.936 184.08 55.0975 183.922 55.2305C183.77 55.3635 183.589 55.4648 183.38 55.5345C183.171 55.6042 182.953 55.639 182.725 55.639C182.586 55.639 182.449 55.6168 182.316 55.5725C182.183 55.5282 182.066 55.4648 181.965 55.3825C181.864 55.2938 181.781 55.1925 181.718 55.0785C181.661 54.9582 181.632 54.822 181.632 54.67C181.632 54.4293 181.702 54.2457 181.841 54.119C181.987 53.986 182.171 53.8847 182.392 53.815C182.614 53.7453 182.858 53.6947 183.124 53.663C183.396 53.625 183.659 53.5838 183.912 53.5395C183.995 53.5268 184.09 53.5047 184.197 53.473C184.305 53.4413 184.378 53.3907 184.416 53.321H184.435ZM190.368 54.2425H189.77C189.751 54.4452 189.7 54.632 189.618 54.803C189.535 54.974 189.431 55.1228 189.304 55.2495C189.178 55.3698 189.032 55.4648 188.867 55.5345C188.703 55.6042 188.528 55.639 188.345 55.639C188.06 55.639 187.81 55.5788 187.594 55.4585C187.379 55.3382 187.198 55.1798 187.053 54.9835C186.913 54.7872 186.806 54.5655 186.73 54.3185C186.66 54.0652 186.625 53.8087 186.625 53.549C186.625 53.2893 186.66 53.036 186.73 52.789C186.806 52.5357 186.913 52.3108 187.053 52.1145C187.198 51.9182 187.379 51.7598 187.594 51.6395C187.81 51.5192 188.06 51.459 188.345 51.459C188.744 51.459 189.054 51.5635 189.276 51.7725C189.497 51.9815 189.649 52.2697 189.732 52.637H190.33C190.261 52.0733 190.042 51.6522 189.675 51.3735C189.314 51.0948 188.87 50.9555 188.345 50.9555C187.971 50.9555 187.639 51.0252 187.347 51.1645C187.062 51.3038 186.822 51.4907 186.625 51.725C186.429 51.9593 186.28 52.2348 186.179 52.5515C186.077 52.8618 186.027 53.1943 186.027 53.549C186.027 53.8783 186.071 54.1918 186.16 54.4895C186.248 54.7808 186.378 55.0405 186.549 55.2685C186.72 55.4965 186.932 55.6865 187.186 55.8385C187.439 55.9842 187.73 56.076 188.06 56.114L187.575 56.741L187.727 56.8835C187.841 56.8328 188.003 56.8075 188.212 56.8075C188.319 56.8075 188.414 56.8392 188.497 56.9025C188.579 56.9658 188.62 57.0545 188.62 57.1685C188.62 57.3142 188.57 57.4187 188.468 57.482C188.367 57.5453 188.25 57.577 188.117 57.577C187.977 57.577 187.838 57.5612 187.699 57.5295C187.559 57.5042 187.449 57.4757 187.366 57.444L187.233 57.748C187.373 57.8177 187.518 57.8683 187.67 57.9C187.822 57.9317 187.974 57.9475 188.126 57.9475C188.247 57.9475 188.367 57.9317 188.487 57.9C188.614 57.8683 188.728 57.8177 188.829 57.748C188.931 57.6847 189.013 57.6023 189.076 57.501C189.14 57.3997 189.171 57.2762 189.171 57.1305C189.171 56.9848 189.133 56.8677 189.057 56.779C188.988 56.6903 188.896 56.6238 188.782 56.5795C188.674 56.5415 188.557 56.5193 188.43 56.513C188.304 56.513 188.183 56.5225 188.069 56.5415L188.383 56.133C188.921 56.1203 189.364 55.9525 189.713 55.6295C190.067 55.3002 190.286 54.8378 190.368 54.2425ZM194.629 49.274H194.268C194.23 49.4007 194.173 49.5083 194.097 49.597C194.028 49.6857 193.92 49.73 193.774 49.73C193.686 49.73 193.594 49.7078 193.499 49.6635C193.41 49.6192 193.312 49.5717 193.204 49.521C193.103 49.4703 192.992 49.4228 192.872 49.3785C192.752 49.3342 192.625 49.312 192.492 49.312C192.372 49.312 192.261 49.3405 192.159 49.3975C192.058 49.4482 191.973 49.5178 191.903 49.6065C191.833 49.6888 191.776 49.7838 191.732 49.8915C191.688 49.9992 191.659 50.11 191.646 50.224H192.017C192.017 50.0657 192.064 49.9453 192.159 49.863C192.254 49.7807 192.375 49.7395 192.52 49.7395C192.603 49.7395 192.691 49.7617 192.786 49.806C192.881 49.8503 192.983 49.901 193.09 49.958C193.198 50.015 193.312 50.0657 193.432 50.11C193.553 50.1543 193.676 50.1765 193.803 50.1765C193.93 50.1765 194.04 50.1512 194.135 50.1005C194.23 50.0435 194.31 49.9738 194.373 49.8915C194.443 49.8028 194.496 49.7047 194.534 49.597C194.579 49.4893 194.61 49.3817 194.629 49.274ZM191.19 52.599H191.789C191.802 52.2 191.928 51.9118 192.169 51.7345C192.41 51.5508 192.72 51.459 193.1 51.459C193.277 51.459 193.442 51.4748 193.594 51.5065C193.752 51.5318 193.888 51.5825 194.002 51.6585C194.123 51.7345 194.215 51.839 194.278 51.972C194.348 52.0987 194.382 52.2633 194.382 52.466C194.382 52.599 194.363 52.7067 194.325 52.789C194.294 52.8713 194.246 52.9378 194.183 52.9885C194.12 53.0328 194.04 53.0645 193.945 53.0835C193.85 53.1025 193.74 53.1183 193.613 53.131C193.29 53.169 192.97 53.2102 192.653 53.2545C192.343 53.2925 192.061 53.3622 191.808 53.4635C191.561 53.5648 191.361 53.7137 191.209 53.91C191.057 54.1 190.981 54.366 190.981 54.708C190.981 54.955 191.023 55.1703 191.105 55.354C191.194 55.5313 191.311 55.6802 191.456 55.8005C191.608 55.9145 191.783 55.9968 191.979 56.0475C192.182 56.1045 192.397 56.133 192.625 56.133C192.866 56.133 193.071 56.1108 193.242 56.0665C193.42 56.0222 193.575 55.9588 193.708 55.8765C193.847 55.7942 193.971 55.6928 194.078 55.5725C194.192 55.4458 194.303 55.3033 194.411 55.145H194.43C194.43 55.2717 194.436 55.3888 194.449 55.4965C194.468 55.5978 194.503 55.6865 194.553 55.7625C194.604 55.8385 194.674 55.8987 194.762 55.943C194.857 55.981 194.981 56 195.133 56C195.215 56 195.282 55.9968 195.332 55.9905C195.389 55.9842 195.453 55.9747 195.522 55.962V55.4585C195.465 55.4838 195.402 55.4965 195.332 55.4965C195.098 55.4965 194.981 55.3762 194.981 55.1355V52.5325C194.981 52.2032 194.927 51.9372 194.819 51.7345C194.712 51.5255 194.572 51.364 194.401 51.25C194.23 51.136 194.037 51.06 193.822 51.022C193.607 50.9777 193.391 50.9555 193.176 50.9555C192.891 50.9555 192.631 50.9872 192.397 51.0505C192.163 51.1138 191.957 51.212 191.779 51.345C191.608 51.478 191.472 51.649 191.371 51.858C191.27 52.067 191.209 52.314 191.19 52.599ZM194.382 53.321V54.1C194.382 54.3407 194.335 54.556 194.24 54.746C194.151 54.936 194.028 55.0975 193.869 55.2305C193.717 55.3635 193.537 55.4648 193.328 55.5345C193.119 55.6042 192.9 55.639 192.672 55.639C192.533 55.639 192.397 55.6168 192.264 55.5725C192.131 55.5282 192.014 55.4648 191.912 55.3825C191.811 55.2938 191.729 55.1925 191.665 55.0785C191.608 54.9582 191.58 54.822 191.58 54.67C191.58 54.4293 191.65 54.2457 191.789 54.119C191.935 53.986 192.118 53.8847 192.34 53.815C192.562 53.7453 192.805 53.6947 193.071 53.663C193.344 53.625 193.607 53.5838 193.86 53.5395C193.942 53.5268 194.037 53.5047 194.145 53.473C194.253 53.4413 194.325 53.3907 194.363 53.321H194.382ZM198.292 51.459C198.577 51.459 198.827 51.5192 199.043 51.6395C199.258 51.7598 199.435 51.9182 199.575 52.1145C199.72 52.3108 199.828 52.5357 199.898 52.789C199.974 53.036 200.012 53.2893 200.012 53.549C200.012 53.8087 199.974 54.0652 199.898 54.3185C199.828 54.5655 199.72 54.7872 199.575 54.9835C199.435 55.1798 199.258 55.3382 199.043 55.4585C198.827 55.5788 198.577 55.639 198.292 55.639C198.007 55.639 197.757 55.5788 197.542 55.4585C197.326 55.3382 197.146 55.1798 197 54.9835C196.861 54.7872 196.753 54.5655 196.677 54.3185C196.608 54.0652 196.573 53.8087 196.573 53.549C196.573 53.2893 196.608 53.036 196.677 52.789C196.753 52.5357 196.861 52.3108 197 52.1145C197.146 51.9182 197.326 51.7598 197.542 51.6395C197.757 51.5192 198.007 51.459 198.292 51.459ZM198.292 50.9555C197.919 50.9555 197.586 51.0252 197.295 51.1645C197.01 51.3038 196.769 51.4907 196.573 51.725C196.376 51.9593 196.228 52.2348 196.126 52.5515C196.025 52.8618 195.974 53.1943 195.974 53.549C195.974 53.9037 196.025 54.2393 196.126 54.556C196.228 54.8663 196.376 55.1387 196.573 55.373C196.769 55.6073 197.01 55.7942 197.295 55.9335C197.586 56.0665 197.919 56.133 198.292 56.133C198.666 56.133 198.995 56.0665 199.28 55.9335C199.572 55.7942 199.815 55.6073 200.012 55.373C200.208 55.1387 200.357 54.8663 200.458 54.556C200.56 54.2393 200.61 53.9037 200.61 53.549C200.61 53.1943 200.56 52.8618 200.458 52.5515C200.357 52.2348 200.208 51.9593 200.012 51.725C199.815 51.4907 199.572 51.3038 199.28 51.1645C198.995 51.0252 198.666 50.9555 198.292 50.9555Z" fill="#5D9732"/>
<path d="M8.54057 23.0007L11.3315 18.9388C11.3315 18.9388 8.98713 16.795 8.76385 13.9742C8.54057 11.1534 10.1035 7.65559 16.0204 7.09143C21.9372 6.52727 31.4266 7.88125 37.3434 17.8105C37.3434 17.8105 39.7995 21.6467 37.79 25.2574C35.7805 28.868 31.5382 32.3658 31.5382 32.3658C31.5382 32.3658 27.1843 35.7507 26.8494 38.7972V43.3105C26.8494 43.3105 29.1938 43.4233 29.8636 43.9874C30.5334 44.5516 31.4489 44.7773 31.4935 43.9874C31.5382 43.1976 31.0916 41.7308 32.7662 41.5051C34.4408 41.2795 35.6688 41.618 36.7852 42.7463C37.9016 43.8746 39.3529 43.6489 39.3529 43.6489C39.3529 43.6489 41.4741 43.3105 41.3624 41.7308C41.2508 40.1512 42.0323 39.2485 42.3672 39.1357C42.7021 39.0228 43.1486 39.0228 43.1486 37.8945C43.1486 37.8945 44.0418 37.6689 43.9301 36.879C43.8185 36.0892 43.4836 34.6224 44.1534 34.2839C44.8232 33.9454 45.9396 33.3812 45.828 32.9299C45.7163 32.4786 43.5952 31.6888 43.5952 28.868C43.5952 27.1981 43.9859 26.16 44.3097 25.5846C44.7786 24.7496 45.0577 23.8131 45.0577 22.8428C45.0577 21.2518 44.5553 18.9613 42.3672 16.5693C38.3482 12.1689 27.0726 2.46532 12.2247 6.3016C12.2247 6.3016 0.837483 10.702 8.54057 23.0007Z" fill="#C8D5BB"/>
<path d="M6.30742 23.0008L9.09839 18.9389C9.09839 18.9389 6.75397 16.7951 6.5307 13.9743C6.30742 11.1535 7.87036 7.65572 13.7872 7.09156C19.7041 6.5274 29.1934 7.88138 35.1103 17.8106C35.1103 17.8106 37.5663 21.6469 35.5568 25.2575C33.5473 28.8681 29.305 32.3659 29.305 32.3659C29.305 32.3659 24.9511 35.7508 24.6162 38.7973V43.3106C24.6162 43.3106 26.9606 43.4234 27.6305 43.9876C28.3003 44.5517 29.2157 44.7774 29.2604 43.9876C29.305 43.1978 28.8585 41.7309 30.5331 41.5053C32.2077 41.2796 33.4357 41.6181 34.5521 42.7464C35.6685 43.8747 37.1198 43.6491 37.1198 43.6491C37.1198 43.6491 39.2409 43.3106 39.1293 41.7309C39.0176 40.1513 39.7991 39.2486 40.134 39.1358C40.4689 39.023 40.9155 39.023 40.9155 37.8947C40.9155 37.8947 41.8086 37.669 41.697 36.8792C41.5853 36.0893 41.2504 34.6225 41.9202 34.284C42.5901 33.9455 43.7065 33.3814 43.5948 32.9301C43.4832 32.4787 41.3621 31.6889 41.3621 28.8681C41.3621 27.1982 41.7528 26.1601 42.0765 25.5847C42.5454 24.7497 42.8245 23.8132 42.8245 22.8429C42.8245 21.252 42.3221 18.9615 40.134 16.5694C36.2043 12.2593 25.3307 2.88293 10.9516 6.06479C10.159 6.23403 9.41098 6.53868 8.70765 6.94488C5.96134 8.54709 -0.859804 12.1803 6.30742 23.0008Z" fill="#9CC57D"/>
<path d="M3.62823 23.0121L6.41921 18.9501C6.41921 18.9501 4.07479 16.8063 3.85151 13.9855C3.62823 11.1647 5.19118 7.66692 11.108 7.10276C17.0249 6.5386 26.5142 7.89258 32.4311 17.8218C32.4311 17.8218 34.8871 21.6581 32.8776 25.2687C30.8681 28.8793 26.6259 32.3771 26.6259 32.3771C26.6259 32.3771 22.2719 35.7621 21.937 38.8085V43.3218C21.937 43.3218 24.2814 43.4346 24.9513 43.9988C25.6211 44.5629 26.5365 44.7886 26.5812 43.9988C26.6259 43.209 26.1793 41.7421 27.8539 41.5165C29.5285 41.2908 30.7565 41.6293 31.8729 42.7576C32.9893 43.8859 34.4406 43.6603 34.4406 43.6603C34.4406 43.6603 36.5617 43.3218 36.4501 41.7421C36.3384 40.1625 37.1199 39.2598 37.4548 39.147C37.7898 39.0342 38.2363 39.0342 38.2363 37.9059C38.2363 37.9059 39.1294 37.6802 39.0178 36.8904C38.9061 36.1005 38.5712 34.6337 39.2411 34.2952C39.9109 33.9567 41.0273 33.3926 40.9156 32.9413C40.804 32.4899 38.6829 31.7001 38.6829 28.8793C38.6829 27.2094 39.0736 26.1713 39.3974 25.5959C39.8662 24.7609 40.1453 23.8244 40.1453 22.8541C40.1453 21.2632 39.643 18.9727 37.4548 16.5806C33.6256 12.3833 23.1874 3.35674 9.34415 5.86161C7.08904 6.26781 4.99023 7.35099 3.41612 9.03219C1.04937 11.5709 -0.759176 16.0052 3.62823 23.0121Z" fill="#5A9A41"/>
<path d="M28.412 53.7588C30.7242 53.7588 32.5985 51.8644 32.5985 49.5276C32.5985 47.1908 30.7242 45.2964 28.412 45.2964C26.0999 45.2964 24.2256 47.1908 24.2256 49.5276C24.2256 51.8644 26.0999 53.7588 28.412 53.7588Z" fill="#C8D5BB"/>
<path d="M26.1791 53.7588C28.4913 53.7588 30.3656 51.8644 30.3656 49.5276C30.3656 47.1908 28.4913 45.2964 26.1791 45.2964C23.867 45.2964 21.9927 47.1908 21.9927 49.5276C21.9927 51.8644 23.867 53.7588 26.1791 53.7588Z" fill="#9CC57D"/>
<path d="M23.3881 53.7588C25.7002 53.7588 27.5746 51.8644 27.5746 49.5276C27.5746 47.1908 25.7002 45.2964 23.3881 45.2964C21.076 45.2964 19.2017 47.1908 19.2017 49.5276C19.2017 51.8644 21.076 53.7588 23.3881 53.7588Z" fill="#5A9A41"/>
</svg>
