<svg width="700" height="467" viewBox="0 0 700 467" fill="none" xmlns="http://www.w3.org/2000/svg">
<rect width="700" height="467" rx="33" fill="#73AF00"/>
<path d="M343.507 58.4627C347.772 55.7411 353.228 55.7411 357.493 58.4627L613.827 222.041C621.836 227.152 621.836 238.848 613.827 243.959L357.493 407.537C353.228 410.259 347.772 410.259 343.507 407.537L87.1728 243.959C79.1638 238.848 79.1638 227.152 87.1728 222.041L343.507 58.4627Z" fill="#FFE15A"/>
<circle cx="350.5" cy="233.5" r="117.5" fill="#4D52A0"/>
<path d="M242.585 183.792C239.748 189.406 237.013 198.495 236 202.338C346.225 185.095 433.555 238.261 463.441 267C465.872 261.787 467.493 252.129 468 247.952L466.987 246.95C385.432 171.26 246.131 176.774 242.585 183.792Z" fill="white"/>
</svg>
