<svg width="77" height="70" viewBox="0 0 77 70" fill="none" xmlns="http://www.w3.org/2000/svg">
<path d="M76.3245 26.7694C76.2969 26.7694 76.27 26.7609 76.2474 26.7449L38.8877 0.395653C38.774 0.315841 38.6389 0.273188 38.5006 0.273427C38.3622 0.273666 38.2273 0.316785 38.1138 0.396989L1.02325 26.7446C0.99391 26.7655 0.957602 26.7737 0.922307 26.7674C0.887012 26.7611 0.855622 26.7409 0.835045 26.7112C0.814468 26.6815 0.806387 26.6447 0.812581 26.609C0.818776 26.5732 0.838738 26.5414 0.868075 26.5206L37.9587 0.172943C38.1175 0.0606739 38.3065 0.00032363 38.5001 1.29795e-06C38.6938 -0.000321034 38.8829 0.0593995 39.0421 0.17114L76.4018 26.5203C76.4254 26.537 76.4431 26.5608 76.4524 26.5884C76.4617 26.616 76.4621 26.6458 76.4535 26.6736C76.4448 26.7014 76.4277 26.7257 76.4045 26.7429C76.3813 26.7601 76.3533 26.7694 76.3245 26.7694L76.3245 26.7694Z" fill="#3F3D56"/>
<path d="M3.14258 27.7034L38.5372 1.13806L74.2003 29.5936L40.3609 49.9093L21.9889 45.6683L3.14258 27.7034Z" fill="#E6E6E6"/>
<path d="M23.5399 62.4574H6.05406C5.94669 62.4575 5.84035 62.4362 5.74111 62.3947C5.64188 62.3532 5.5517 62.2923 5.47573 62.2154C5.39976 62.1386 5.33949 62.0473 5.29837 61.9469C5.25725 61.8465 5.23608 61.7388 5.23608 61.63C5.23608 61.5213 5.25725 61.4136 5.29837 61.3132C5.33949 61.2128 5.39976 61.1215 5.47573 61.0447C5.5517 60.9678 5.64188 60.9069 5.74111 60.8654C5.84035 60.8239 5.94669 60.8026 6.05406 60.8027H23.5399C23.6472 60.8026 23.7536 60.8239 23.8528 60.8654C23.952 60.9069 24.0422 60.9678 24.1182 61.0447C24.1942 61.1215 24.2544 61.2128 24.2955 61.3132C24.3367 61.4136 24.3578 61.5213 24.3578 61.63C24.3578 61.7388 24.3367 61.8465 24.2955 61.9469C24.2544 62.0473 24.1942 62.1386 24.1182 62.2154C24.0422 62.2923 23.952 62.3532 23.8528 62.3947C23.7536 62.4362 23.6472 62.4575 23.5399 62.4574V62.4574Z" fill="#457B8F"/>
<path d="M12.3276 58.9005H6.05406C5.94669 58.9006 5.84035 58.8793 5.74111 58.8378C5.64188 58.7963 5.5517 58.7354 5.47573 58.6585C5.39976 58.5817 5.33949 58.4905 5.29837 58.39C5.25725 58.2896 5.23608 58.1819 5.23608 58.0732C5.23608 57.9644 5.25725 57.8568 5.29837 57.7563C5.33949 57.6559 5.39976 57.5646 5.47573 57.4878C5.5517 57.411 5.64188 57.35 5.74111 57.3085C5.84035 57.267 5.94669 57.2457 6.05406 57.2459H12.3276C12.4349 57.2457 12.5413 57.267 12.6405 57.3085C12.7398 57.35 12.8299 57.411 12.9059 57.4878C12.9819 57.5646 13.0421 57.6559 13.0833 57.7563C13.1244 57.8568 13.1456 57.9644 13.1456 58.0732C13.1456 58.1819 13.1244 58.2896 13.0833 58.39C13.0421 58.4905 12.9819 58.5817 12.9059 58.6585C12.8299 58.7354 12.7398 58.7963 12.6405 58.8378C12.5413 58.8793 12.4349 58.9006 12.3276 58.9005Z" fill="#457B8F"/>
<path d="M39.0349 42.4999C38.902 42.5001 38.7703 42.474 38.6473 42.4231L16.8184 33.2504V4.53845C16.8187 4.28456 16.9184 4.04115 17.0956 3.86162C17.2729 3.6821 17.5133 3.58111 17.764 3.58081H59.6412C59.8919 3.58111 60.1322 3.6821 60.3095 3.86162C60.4868 4.04115 60.5865 4.28456 60.5868 4.53845V33.2704L60.5458 33.2882L39.4342 42.4186C39.3078 42.4724 39.172 42.5 39.0349 42.4999Z" fill="white"/>
<path d="M39.035 42.5683C38.8933 42.5685 38.7529 42.5407 38.6217 42.4864L16.751 33.2961V4.53849C16.7513 4.26646 16.8581 4.00567 17.0481 3.81331C17.238 3.62096 17.4955 3.51276 17.7641 3.51245H59.6413C59.9099 3.51276 60.1675 3.62096 60.3574 3.81331C60.5473 4.00567 60.6542 4.26646 60.6545 4.53849V33.3156L39.4609 42.4815C39.3261 42.5389 39.1813 42.5684 39.035 42.5683V42.5683ZM17.0211 33.1134L38.7248 42.2335C38.9272 42.3166 39.1539 42.3153 39.3553 42.2296L60.3843 33.135V4.53849C60.3841 4.33901 60.3057 4.14776 60.1664 4.00671C60.0272 3.86565 59.8383 3.7863 59.6413 3.78606H17.7641C17.5672 3.7863 17.3783 3.86565 17.239 4.00671C17.0997 4.14776 17.0214 4.33901 17.0212 4.53849L17.0211 33.1134Z" fill="#3F3D56"/>
<path d="M76.0544 26.4958H76.0273L60.5193 33.2021L39.3011 42.3776C39.2182 42.4129 39.1292 42.4314 39.0393 42.4318C38.9493 42.4323 38.8602 42.4148 38.7769 42.3804L16.886 33.1829L0.996931 26.5068L0.972658 26.4958H0.945614C0.694907 26.4961 0.454547 26.5971 0.27727 26.7766C0.0999936 26.9562 0.000278179 27.1996 0 27.4535V69.0424C0.000278536 69.2963 0.0999937 69.5397 0.27727 69.7192C0.454547 69.8988 0.694907 69.9998 0.945614 70H76.0544C76.3051 69.9998 76.5454 69.8988 76.7227 69.7192C76.9 69.5397 76.9997 69.2963 77 69.0424V27.4535C76.9997 27.1996 76.9 26.9562 76.7227 26.7766C76.5454 26.5971 76.3051 26.4961 76.0544 26.4958V26.4958ZM76.7298 69.0424C76.7297 69.2238 76.6586 69.3977 76.5319 69.526C76.4053 69.6543 76.2335 69.7264 76.0544 69.7264H0.945614C0.766499 69.7264 0.59474 69.6543 0.468087 69.526C0.341433 69.3977 0.270247 69.2238 0.270175 69.0424V27.4535C0.27042 27.2766 0.338173 27.1067 0.459269 26.9792C0.580364 26.8517 0.745427 26.7766 0.919955 26.7695L16.886 33.4784L38.6729 42.6334C38.9088 42.7306 39.1731 42.7291 39.4078 42.6293L60.5193 33.4989L76.0814 26.7695C76.2557 26.7771 76.4203 26.8524 76.541 26.9798C76.6618 27.1072 76.7294 27.2769 76.7298 27.4535V69.0424Z" fill="#3F3D56"/>
<path d="M38.8167 34.3583C38.0109 34.3599 37.2264 34.096 36.5816 33.6064L36.5416 33.576L28.1241 27.0494C27.7343 26.7469 27.4071 26.3696 27.1613 25.9391C26.9154 25.5085 26.7557 25.0332 26.6913 24.5401C26.6268 24.0471 26.6589 23.546 26.7857 23.0655C26.9125 22.585 27.1314 22.1345 27.4301 21.7397C27.7288 21.3449 28.1014 21.0136 28.5265 20.7646C28.9516 20.5157 29.421 20.3539 29.9079 20.2886C30.3947 20.2234 30.8895 20.2559 31.364 20.3842C31.8384 20.5126 32.2833 20.7344 32.6731 21.0369L38.1253 25.2707L51.0097 8.25391C51.3085 7.85922 51.6811 7.52801 52.1064 7.27918C52.5316 7.03035 53.001 6.86878 53.4879 6.80369C53.9748 6.7386 54.4696 6.77127 54.944 6.89984C55.4184 7.0284 55.8632 7.25034 56.2529 7.55298L56.1728 7.66313L56.2549 7.55458C57.0411 8.16646 57.5554 9.06914 57.6852 10.0646C57.8149 11.0601 57.5495 12.067 56.9471 12.8645L41.7919 32.8803C41.4414 33.3416 40.9907 33.7148 40.4747 33.9711C39.9588 34.2275 39.3914 34.36 38.8167 34.3583V34.3583Z" fill="#457B8F"/>
</svg>
