<svg width="700" height="466" viewBox="0 0 700 466" fill="none" xmlns="http://www.w3.org/2000/svg">
<rect width="700" height="466" rx="38" fill="white"/>
<path d="M0 33C0 14.7746 14.7746 0 33 0H300V250.994H0V33Z" fill="#464EAF"/>
<path d="M300 0H667C685.225 0 700 14.7746 700 33V35.9881H300V0Z" fill="#FF4444"/>
<path d="M300 143.03H700V179.018H300V143.03Z" fill="#FF4444"/>
<path d="M300 215.006H700V250.994H300V215.006Z" fill="#FF4444"/>
<path d="M0 430.012H700V433C700 451.225 685.225 466 667 466H33C14.7746 466 0 451.225 0 433V430.012Z" fill="#FF4444"/>
<path d="M0 358.036H700V394.024H0V358.036Z" fill="#FF4444"/>
<path d="M0 286.982H700V322.971H0V286.982Z" fill="#FF4444"/>
<path d="M300 71.9761H700V107.964H300V71.9761Z" fill="#FF4444"/>
</svg>
